
v 4.742000 9.599999 6.262001
v 7.900000 9.599999 6.381001
v 5.411000 9.599999 5.916001
v -6.021300 9.599999 6.381001
v -6.283000 9.599999 4.701001
v -6.400000 9.600000 3.950001
v 0.000000 -0.000001 7.900000
v 7.900000 9.599999 7.900001
v -7.900000 7.599999 7.900001
v 5.411000 9.600001 -5.961999
v 4.742000 9.600001 -6.302999
v 4.742000 11.300001 -6.302999
v 5.411000 11.300001 -5.961998
v -5.942000 9.599999 5.379001
v 7.900000 -0.000001 7.900000
v -5.411000 9.599999 5.916001
v -4.742000 9.599999 6.262001
v -4.000000 9.599999 6.381001
v -5.411000 11.300001 -5.961998
v -1.600000 11.300001 -4.019999
v -4.742000 11.300001 -6.302999
v -5.942000 11.300001 -5.430999
v -4.000000 11.300001 -6.419999
v -6.283000 11.300001 -4.761999
v -3.258000 11.300001 -6.302999
v -1.717000 11.300001 -4.761999
v -2.589000 11.300001 -5.961998
v -2.058000 11.300001 -5.430999
v -7.900000 9.600001 -7.899999
v -6.400000 9.600001 -7.899999
v -7.900000 7.600001 -7.899999
v -1.600000 9.599999 6.381001
v -3.258000 9.599999 6.262001
v 0.000000 0.000001 -7.900000
v 1.600000 9.600001 -7.899999
v 1.717000 9.600001 -4.761999
v 2.058000 9.600001 -5.430999
v -1.717000 9.600001 -4.761999
v -2.589000 9.599999 5.916001
v -2.058000 9.599999 5.379001
v 1.600000 9.600001 -4.019999
v -1.717000 9.600000 -3.277999
v 1.717000 9.600000 -3.277999
v -2.058000 9.600000 -2.608999
v 2.058000 9.600000 -2.608999
v -6.400000 11.300001 -4.019999
v -6.283000 11.300000 -3.277999
v -5.942000 11.300000 -2.608999
v -5.411000 11.300000 -2.077999
v -4.742000 11.300000 -1.737999
v -4.000000 11.300000 -1.619999
v -3.258000 11.300000 -1.737999
v -2.589000 11.300000 -2.077999
v -2.058000 11.300000 -2.608999
v -1.717000 11.300000 -3.277999
v 4.000000 11.300001 -6.419999
v 4.000000 9.600001 -6.419999
v -5.411000 11.300000 1.983001
v -5.942000 11.300000 2.521001
v -2.058000 11.300000 2.521001
v -1.717000 11.300000 3.199001
v -6.283000 11.300000 3.199001
v -1.600000 11.300000 3.950001
v -6.400000 11.300000 3.950001
v -2.589000 11.300000 1.983001
v -3.258000 11.300000 1.638001
v -4.742000 11.300000 1.638001
v -4.000000 11.300000 1.519001
v -4.000000 9.600001 -6.419999
v -4.742000 9.600001 -6.302999
v -5.411000 9.600001 -5.961999
v -5.942000 9.600001 -5.430999
v -6.283000 11.299999 4.701002
v -1.717000 11.299999 4.701002
v -5.942000 11.299999 5.379002
v -5.411000 11.299999 5.916001
v -4.742000 11.299999 6.262002
v -4.000000 11.299999 6.381001
v -3.258000 11.299999 6.262002
v -2.589000 11.299999 5.916001
v -2.058000 11.299999 5.379002
v 4.000000 11.300000 1.519001
v 3.258000 11.300000 1.638001
v 4.742000 11.300000 1.638001
v 5.411000 11.300000 1.983001
v 2.589000 11.300000 1.983001
v 2.058000 11.300000 2.521001
v 6.283000 11.300000 3.199001
v 5.942000 11.300000 2.521001
v 1.717000 11.300000 3.199001
v 1.600000 11.300000 3.950001
v -4.000000 9.600000 1.519001
v -4.742000 9.600000 1.638001
v 1.717000 9.600000 3.199001
v 2.058000 9.600000 2.521001
v -1.717000 9.600000 3.199001
v -5.411000 9.600000 1.983001
v -5.942000 9.600000 2.521001
v -6.283000 9.600001 -4.761999
v -6.283000 9.600000 3.199001
v -6.400000 9.600001 -4.019999
v 1.600000 9.600000 3.950001
v -1.600000 9.600000 3.950001
v 1.717000 9.599999 4.701001
v 4.742000 11.300000 -1.737999
v 5.942000 11.300001 -5.430999
v 6.283000 11.299999 4.701002
v 2.589000 11.299999 5.916001
v 3.258000 11.299999 6.262002
v 4.000000 11.299999 6.381001
v 4.742000 11.299999 6.262002
v 5.411000 11.299999 5.916001
v 5.942000 11.299999 5.379002
v 1.517000 -0.000001 6.383000
v 1.517000 8.102999 6.383001
v 6.403000 8.102999 6.383001
v 2.589000 9.599999 5.916001
v 2.058000 9.599999 5.379001
v 6.283000 11.300001 -4.761999
v 5.942000 11.300000 -2.608999
v 6.400000 11.300001 -4.019999
v 6.283000 11.300000 -3.277999
v 6.400000 9.600001 -4.019999
v 6.283000 9.600001 -4.761999
v 3.258000 9.600000 1.638001
v 2.589000 9.600000 1.983001
v -1.717000 9.599999 4.701001
v 5.942000 9.600001 -5.430999
v 1.717000 11.300001 -4.761999
v 1.600000 11.300001 -4.019999
v 2.058000 11.300001 -5.430999
v 1.717000 11.300000 -3.277999
v -2.058000 9.600000 2.521001
v 6.400000 9.600000 3.950001
v 6.283000 9.600000 3.199001
v 6.400000 11.300000 3.950001
v 5.942000 9.600000 -2.608999
v 6.283000 9.600000 -3.277999
v 5.942000 9.600000 2.521001
v -2.589000 9.600000 1.983001
v 5.411000 9.600000 1.983001
v 1.587000 0.000001 -6.403000
v 1.517000 0.000001 -6.403000
v 1.587000 0.000001 -6.413000
v -3.258000 9.600000 1.638001
v 4.742000 9.600000 1.638001
v 7.900000 0.000001 -7.900000
v 7.900000 9.600001 -7.899999
v 1.587000 8.103001 -6.412999
v 1.587000 8.103001 -6.402999
v -2.058000 9.600001 -5.430999
v 2.058000 11.300000 -2.608999
v 1.517000 8.103001 -6.402999
v -2.589000 9.600001 -5.961999
v 2.589000 9.600000 -2.077999
v 2.589000 11.300000 -2.077999
v -3.258000 9.600001 -6.302999
v 6.392000 8.103001 -6.412999
v 2.487000 8.100000 0.496001
v 2.409000 -0.000000 0.001000
v 2.487000 -0.000000 0.496000
v 4.000000 9.600000 1.519001
v 3.258000 9.600000 -1.737999
v 2.714000 -0.000000 0.942000
v 1.717000 11.299999 4.701002
v 2.058000 11.299999 5.379002
v 3.258000 9.600001 -6.302999
v 3.258000 9.599999 6.262001
v 4.000000 9.599999 6.381001
v 3.258000 11.300000 -1.737999
v 4.000000 9.600000 -1.619999
v 4.000000 11.300000 -1.619999
v 2.589000 9.600001 -5.961999
v 6.403000 -0.000001 6.383000
v 4.742000 9.600000 -1.737999
v 5.942000 9.599999 5.379001
v 5.411000 9.600000 -2.077999
v 5.411000 11.300000 -2.077999
v -6.283000 9.600000 -3.277999
v 5.303000 -0.000000 0.942000
v 5.303000 8.100000 0.942001
v 4.949000 8.100000 1.296001
v 6.392000 8.103000 1.517001
v 6.283000 9.599999 4.701001
v 5.609000 -0.000000 0.001000
v 5.609000 8.100000 0.001001
v 5.531000 -0.000000 0.496000
v 6.392000 -0.000000 1.517000
v 6.392000 0.000001 -6.413000
v 6.403000 -0.000000 1.517000
v -1.600000 9.600001 -4.019999
v 2.714000 0.000000 -0.939000
v 3.068000 0.000000 -1.293000
v 2.487000 0.000000 -0.493000
v 3.514000 0.000000 -1.521000
v 4.009000 0.000000 -1.599000
v 4.503000 0.000000 -1.521000
v 4.949000 0.000000 -1.293000
v 5.303000 0.000000 -0.939000
v 5.531000 0.000000 -0.493000
v 4.949000 -0.000000 1.296000
v 4.503000 -0.000000 1.523000
v 4.009000 -0.000000 1.601000
v 3.514000 -0.000000 1.523000
v 3.068000 -0.000000 1.296000
v -6.400000 9.600000 -1.619999
v 6.403000 8.103000 1.517001
v 3.068000 8.100000 -1.292999
v -5.942000 9.600000 -2.608999
v -5.411000 9.600000 -2.077999
v 2.714000 8.100000 -0.938999
v 2.589000 11.300001 -5.961998
v 3.258000 11.300001 -6.302999
v -4.000000 9.600000 -1.619999
v -3.258000 9.600000 -1.737999
v -2.589000 9.600000 -2.077999
v 5.303000 8.100000 -0.938999
v 2.487000 8.100000 -0.492999
v 2.409000 8.100000 0.001001
v 4.949000 8.100000 -1.292999
v 3.514000 8.100000 -1.520999
v 4.009000 8.100000 -1.598999
v 4.503000 8.100000 -1.520999
v -4.742000 9.600000 -1.737999
v 4.503000 8.100000 1.523001
v 4.009000 8.100000 1.601001
v 5.531000 8.100000 -0.492999
v 2.714000 8.100000 0.942001
v 3.068000 8.100000 1.296001
v 3.514000 8.100000 1.523001
v 5.531000 8.100000 0.496001
v -7.900000 9.599999 7.900001
vn 0.2088 0.7446 0.6340
vn 0.7071 0.7071 0.0000
vn 0.3959 0.7440 0.5382
vn 0.0000 1.0000 0.0000
vn -0.6084 0.7710 0.1883
vn -0.6687 0.7435 0.0000
vn -0.2897 -0.7189 0.6319
vn 0.5773 0.5773 0.5773
vn -0.7155 -0.3045 0.6287
vn 0.3927 0.7440 -0.5405
vn 0.2062 0.7442 -0.6353
vn 0.2282 0.6734 -0.7031
vn 0.4345 0.6735 -0.5979
vn -0.5426 0.7440 0.3898
vn 0.5773 -0.5773 0.5773
vn -0.3959 0.7440 0.5382
vn -0.2088 0.7446 0.6340
vn 0.0000 0.7445 0.6676
vn -0.4345 0.6735 -0.5979
vn 0.7390 0.6737 0.0000
vn -0.2282 0.6734 -0.7031
vn -0.5979 0.6735 -0.4345
vn 0.0000 0.6737 -0.7390
vn -0.7031 0.6734 -0.2282
vn 0.7031 0.6734 -0.2282
vn 0.5979 0.6735 -0.4345
vn -0.5773 0.5773 -0.5773
vn 0.0000 0.7071 -0.7071
vn -0.7155 -0.3045 -0.6287
vn -0.2897 -0.7189 -0.6319
vn -0.6353 0.7442 -0.2062
vn -0.5405 0.7440 -0.3927
vn 0.6353 0.7442 -0.2062
vn 0.5426 0.7440 0.3898
vn -0.6683 0.7439 0.0000
vn 0.6353 0.7442 0.2062
vn -0.6353 0.7442 0.2062
vn 0.5405 0.7440 0.3927
vn -0.5405 0.7440 0.3927
vn -0.7390 0.6737 0.0000
vn -0.7031 0.6734 0.2282
vn -0.5979 0.6735 0.4345
vn -0.4342 0.6734 0.5983
vn -0.2282 0.6737 0.7029
vn 0.0000 0.6734 0.7392
vn 0.2282 0.6737 0.7029
vn 0.4342 0.6734 0.5983
vn 0.5979 0.6735 0.4345
vn 0.7031 0.6734 0.2282
vn 0.0000 0.7439 -0.6683
vn -0.4379 0.6734 -0.5956
vn -0.6004 0.6737 -0.4309
vn 0.6004 0.6737 -0.4309
vn 0.7036 0.6738 -0.2256
vn -0.7036 0.6738 -0.2256
vn 0.7387 0.6740 0.0000
vn -0.7387 0.6740 0.0000
vn 0.4379 0.6734 -0.5956
vn 0.2309 0.6732 -0.7024
vn -0.2309 0.6732 -0.7024
vn 0.0000 0.6731 -0.7395
vn -0.2062 0.7442 -0.6353
vn -0.3927 0.7440 -0.5405
vn -0.7036 0.6738 0.2256
vn 0.7036 0.6738 0.2256
vn -0.6003 0.6735 0.4312
vn -0.4379 0.6736 0.5954
vn -0.2313 0.6731 0.7024
vn 0.0000 0.6731 0.7395
vn 0.2313 0.6731 0.7024
vn 0.4379 0.6736 0.5954
vn 0.6003 0.6735 0.4312
vn 0.0000 0.7445 -0.6676
vn -0.2085 0.7444 -0.6343
vn -0.6365 0.7437 -0.2041
vn -0.5429 0.7439 -0.3896
vn 0.6365 0.7437 -0.2041
vn -0.3956 0.7443 -0.5380
vn -0.6688 0.7434 0.0000
vn 0.6688 0.7434 0.0000
vn -0.6365 0.7437 0.2041
vn 0.3015 -0.9045 -0.3015
vn 0.5773 -0.5773 -0.5773
vn -0.5773 -0.5773 -0.5773
vn 0.6683 0.7439 0.0000
vn 0.6365 0.7437 0.2041
vn 0.5405 0.7440 -0.3927
vn 0.5429 0.7439 -0.3896
vn 0.3956 0.7443 -0.5380
vn 0.3015 -0.9045 0.3015
vn 0.2085 0.7444 -0.6343
vn 0.5773 0.5773 -0.5773
vn -0.3923 0.7442 0.5406
vn -0.5773 -0.5773 0.5773
vn -0.7031 0.6735 0.2280
vn -0.7390 -0.6736 -0.0001
vn -0.7031 -0.6735 0.2280
vn -0.2064 0.7439 0.6356
vn -0.5981 -0.6735 0.4343
vn 0.0000 0.7442 0.6679
vn -0.3015 -0.9045 -0.3015
vn 0.2064 0.7439 0.6356
vn 0.3923 0.7442 0.5406
vn 0.5976 -0.6737 0.4348
vn 0.5976 0.6737 0.4348
vn 0.4343 0.6735 0.5981
vn -0.3015 -0.9045 0.3015
vn 0.7390 -0.6736 -0.0001
vn 0.7390 0.6736 -0.0001
vn 0.7031 -0.6733 0.2286
vn -0.5981 -0.6735 -0.4343
vn -0.4348 -0.6737 -0.5976
vn -0.7031 -0.6735 -0.2281
vn -0.2286 -0.6733 -0.7031
vn 0.0001 -0.6736 -0.7390
vn 0.2287 -0.6733 -0.7030
vn 0.4348 -0.6737 -0.5976
vn 0.5976 -0.6737 -0.4348
vn 0.7030 -0.6733 -0.2287
vn 0.4343 -0.6735 0.5981
vn 0.2281 -0.6735 0.7031
vn 0.0001 -0.6736 0.7390
vn -0.2280 -0.6735 0.7031
vn -0.4343 -0.6735 0.5981
vn -0.4348 0.6737 -0.5976
vn -0.5981 0.6735 -0.4343
vn 0.5976 0.6737 -0.4348
vn -0.7031 0.6735 -0.2281
vn -0.7390 0.6736 -0.0001
vn 0.4348 0.6737 -0.5976
vn -0.2286 0.6733 -0.7031
vn 0.0001 0.6736 -0.7390
vn 0.2287 0.6733 -0.7030
vn 0.2281 0.6735 0.7031
vn 0.0001 0.6736 0.7390
vn 0.7030 0.6733 -0.2287
vn -0.5981 0.6735 0.4343
vn -0.4343 0.6735 0.5981
vn -0.2280 0.6735 0.7031
vn 0.7031 0.6733 0.2286
vn -0.5773 0.5773 0.5773
usemtl color_30377.004
s 1
f 1//1 2//2 3//3
f 4//4 5//5 6//6
f 7//7 8//8 9//9
f 10//10 11//11 12//12
f 10//10 12//12 13//13
f 4//4 14//14 5//5
f 15//15 8//8 7//7
f 14//14 4//4 16//16
f 4//4 17//17 16//16
f 4//4 18//18 17//17
f 19//19 20//20 21//21
f 22//22 20//20 19//19
f 21//21 20//20 23//23
f 24//24 20//20 22//22
f 25//12 23//23 26//25
f 27//13 26//25 28//26
f 25//12 26//25 27//13
f 29//27 30//28 31//29
f 18//18 32//4 33//1
f 34//30 30//28 35//28
f 36//31 37//32 38//33
f 35//28 38//33 37//32
f 32//4 39//3 33//1
f 34//30 31//29 30//28
f 39//3 32//4 40//34
f 41//35 42//36 43//37
f 43//37 44//38 45//39
f 46//40 20//20 24//24
f 47//41 20//20 46//40
f 26//25 23//23 20//20
f 20//20 47//41 48//42
f 20//20 48//42 49//43
f 20//20 49//43 50//44
f 20//20 50//44 51//45
f 20//20 51//45 52//46
f 20//20 52//46 53//47
f 20//20 53//47 54//48
f 20//20 54//48 55//49
f 56//23 12//12 57//50
f 11//11 57//50 12//12
f 58//51 59//52 60//53
f 61//54 60//53 59//52
f 59//52 62//55 61//54
f 63//56 61//54 62//55
f 64//57 63//56 62//55
f 60//53 65//58 58//51
f 65//58 66//59 58//51
f 67//60 58//51 66//59
f 68//61 67//60 66//59
f 23//23 69//50 70//62
f 23//23 70//62 21//21
f 70//62 71//63 19//19
f 70//62 19//19 21//21
f 71//63 72//32 22//22
f 71//63 22//22 19//19
f 64//57 73//64 63//56
f 74//65 63//56 73//64
f 74//65 73//64 75//66
f 74//65 75//66 76//67
f 74//65 76//67 77//68
f 74//65 77//68 78//69
f 74//65 78//69 79//70
f 74//65 79//70 80//71
f 74//65 80//71 81//72
f 82//61 83//60 84//59
f 85//58 84//59 83//60
f 83//60 86//51 85//58
f 86//51 87//52 85//58
f 88//54 89//53 87//52
f 87//52 90//55 88//54
f 90//55 91//57 88//54
f 68//61 92//73 93//74
f 68//61 93//74 67//60
f 94//75 95//76 96//77
f 93//74 97//78 58//51
f 93//74 58//51 67//60
f 97//78 98//76 59//52
f 97//78 59//52 58//51
f 72//32 99//31 24//24
f 72//32 24//24 22//22
f 98//76 100//75 62//55
f 98//76 62//55 59//52
f 99//31 101//35 24//24
f 100//75 6//6 64//57
f 100//75 64//57 62//55
f 102//79 103//80 104//81
f 13//13 105//46 106//26
f 107//65 108//67 109//68
f 107//65 109//68 110//69
f 107//65 110//69 111//70
f 107//65 111//70 112//71
f 107//65 112//71 113//72
f 114//82 115//83 116//84
f 117//16 118//14 32//4
f 104//81 32//4 118//14
f 119//25 106//26 120//48
f 121//20 119//25 120//48
f 121//20 120//48 122//49
f 123//85 124//33 119//25
f 125//74 126//78 86//51
f 125//74 86//51 83//60
f 127//86 103//80 63//56
f 124//33 128//87 106//26
f 124//33 106//26 119//25
f 126//78 95//76 87//52
f 126//78 87//52 86//51
f 129//24 130//40 131//22
f 13//13 106//26 128//87
f 103//80 96//77 61//54
f 103//80 61//54 63//56
f 132//41 13//13 130//40
f 96//77 133//88 60//53
f 96//77 60//53 61//54
f 134//80 135//77 88//54
f 134//80 88//54 136//56
f 137//38 138//36 122//49
f 137//38 122//49 120//48
f 135//77 139//88 89//53
f 135//77 89//53 88//54
f 133//88 140//89 65//58
f 133//88 65//58 60//53
f 138//36 123//85 121//20
f 138//36 121//20 122//49
f 139//88 141//89 85//58
f 139//88 85//58 89//53
f 142//15 143//90 144//90
f 37//32 36//31 129//24
f 37//32 129//24 131//22
f 140//89 145//91 66//59
f 140//89 66//59 65//58
f 119//25 121//20 123//85
f 144//90 143//90 34//30
f 141//89 146//91 84//59
f 141//89 84//59 85//58
f 145//91 92//73 68//61
f 145//91 68//61 66//59
f 34//30 35//28 147//83
f 148//92 147//83 35//28
f 7//7 34//30 114//82
f 143//90 114//82 34//30
f 130//40 129//24 41//35
f 36//31 41//35 129//24
f 149//15 150//90 142//15
f 149//15 142//15 144//90
f 73//64 64//57 5//5
f 6//6 5//5 64//57
f 130//40 41//35 43//37
f 130//40 43//37 132//41
f 38//33 151//87 28//26
f 38//33 28//26 26//25
f 5//5 14//14 75//66
f 5//5 75//66 73//64
f 43//37 45//39 152//42
f 43//37 152//42 132//41
f 153//15 115//83 143//90
f 151//87 154//10 27//13
f 151//87 27//13 28//26
f 150//90 153//15 143//90
f 150//90 143//90 142//15
f 14//14 16//16 76//67
f 14//14 76//67 75//66
f 45//39 155//93 156//43
f 45//39 156//43 152//42
f 154//10 157//11 25//12
f 154//10 25//12 27//13
f 126//78 125//74 155//93
f 95//76 126//78 133//88
f 149//15 158//94 150//90
f 157//11 69//50 23//23
f 157//11 23//23 25//12
f 159//95 160//96 161//97
f 16//16 17//17 77//68
f 16//16 77//68 76//67
f 125//74 162//73 163//98
f 136//56 88//54 91//57
f 107//65 136//56 91//57
f 17//17 18//18 78//69
f 17//17 78//69 77//68
f 159//95 161//97 164//99
f 107//65 91//57 165//64
f 107//65 165//64 166//66
f 108//67 107//65 166//66
f 167//62 57//50 35//28
f 148//92 35//28 57//50
f 117//16 168//17 109//68
f 117//16 109//68 108//67
f 78//69 18//18 33//1
f 78//69 33//1 79//70
f 114//82 143//90 115//83
f 168//17 169//18 110//69
f 168//17 110//69 109//68
f 33//1 39//3 80//71
f 33//1 80//71 79//70
f 95//76 94//75 90//55
f 95//76 90//55 87//52
f 101//35 46//40 24//24
f 115//83 153//15 150//90
f 94//75 102//79 91//57
f 94//75 91//57 90//55
f 39//3 40//34 81//72
f 39//3 81//72 80//71
f 155//93 163//98 170//44
f 155//93 170//44 156//43
f 110//69 169//18 1//1
f 110//69 1//1 111//70
f 169//18 32//4 8//8
f 163//98 171//100 172//45
f 163//98 172//45 170//44
f 167//62 35//28 173//63
f 40//34 127//86 74//65
f 40//34 74//65 81//72
f 1//1 3//3 112//71
f 1//1 112//71 111//70
f 174//101 15//15 114//82
f 172//45 171//100 175//102
f 172//45 175//102 105//46
f 173//63 35//28 37//32
f 3//3 176//34 113//72
f 3//3 113//72 112//71
f 63//56 74//65 127//86
f 175//102 177//103 178//47
f 175//102 178//47 105//46
f 114//82 116//84 174//101
f 46//40 101//35 179//37
f 46//40 179//37 47//41
f 180//104 181//105 182//106
f 177//103 137//38 120//48
f 177//103 120//48 178//47
f 116//84 115//83 183//107
f 176//34 184//86 107//65
f 176//34 107//65 113//72
f 128//87 148//92 10//10
f 41//35 36//31 38//33
f 184//86 134//80 107//65
f 136//56 107//65 134//80
f 10//10 148//92 11//11
f 185//108 186//109 187//110
f 30//28 69//50 35//28
f 188//94 189//107 190//107
f 147//83 190//107 189//107
f 69//50 30//28 70//62
f 146//91 175//102 162//73
f 70//62 30//28 71//63
f 144//90 147//83 189//107
f 71//63 30//28 72//32
f 30//28 99//31 72//32
f 34//30 147//83 144//90
f 104//81 91//57 102//79
f 11//11 148//92 57//50
f 30//28 101//35 99//31
f 104//81 165//64 91//57
f 171//100 163//98 162//73
f 104//81 118//14 166//66
f 104//81 166//66 165//64
f 191//85 41//35 38//33
f 151//87 35//28 154//10
f 192//111 193//112 194//113
f 194//113 193//112 195//114
f 194//113 195//114 196//115
f 194//113 196//115 197//116
f 194//113 197//116 198//117
f 194//113 198//117 199//118
f 194//113 199//118 200//119
f 194//113 200//119 185//108
f 45//39 133//88 155//93
f 38//33 35//28 151//87
f 175//102 171//100 162//73
f 160//96 194//113 185//108
f 160//96 185//108 187//110
f 160//96 187//110 180//104
f 160//96 180//104 201//120
f 160//96 201//120 202//121
f 160//96 202//121 203//122
f 204//123 161//97 203//122
f 205//124 161//97 204//123
f 164//99 161//97 205//124
f 160//96 203//122 161//97
f 69//50 157//11 35//28
f 154//10 35//28 157//11
f 163//98 155//93 125//74
f 101//35 206//4 179//37
f 190//107 207//94 183//107
f 190//107 183//107 188//94
f 208//125 195//114 193//112
f 206//4 209//39 179//37
f 183//107 158//94 188//94
f 209//39 206//4 210//93
f 89//53 85//58 87//52
f 2//2 147//83 148//92
f 192//111 211//126 193//112
f 212//19 130//40 213//21
f 213//21 130//40 56//23
f 131//22 130//40 212//19
f 56//23 130//40 12//12
f 132//41 152//42 13//13
f 12//12 130//40 13//13
f 125//74 83//60 162//73
f 82//61 162//73 83//60
f 162//73 82//61 146//91
f 84//59 146//91 82//61
f 149//15 144//90 158//94
f 189//107 158//94 144//90
f 214//100 92//73 215//102
f 189//107 188//94 158//94
f 158//94 183//107 150//90
f 115//83 150//90 183//107
f 145//91 140//89 216//103
f 215//102 145//91 216//103
f 156//43 13//13 152//42
f 13//13 156//43 170//44
f 13//13 170//44 172//45
f 13//13 172//45 105//46
f 178//47 106//26 105//46
f 120//48 106//26 178//47
f 179//37 209//39 48//42
f 179//37 48//42 47//41
f 56//23 57//50 167//62
f 56//23 167//62 213//21
f 208//125 211//126 217//127
f 211//126 218//128 217//127
f 218//128 219//129 217//127
f 217//127 220//130 208//125
f 221//131 208//125 220//130
f 222//132 221//131 220//130
f 222//132 220//130 223//133
f 209//39 210//93 49//43
f 209//39 49//43 48//42
f 167//62 173//63 212//19
f 167//62 212//19 213//21
f 135//77 138//36 139//88
f 41//35 191//85 42//36
f 44//38 43//37 42//36
f 175//102 146//91 177//103
f 210//93 224//98 50//44
f 210//93 50//44 49//43
f 173//63 37//32 131//22
f 173//63 131//22 212//19
f 225//134 186//109 226//135
f 148//92 123//85 2//2
f 124//33 123//85 148//92
f 123//85 138//36 2//2
f 177//103 141//89 137//38
f 137//38 139//88 138//36
f 224//98 214//100 51//45
f 224//98 51//45 50//44
f 13//13 128//87 10//10
f 124//33 148//92 128//87
f 51//45 214//100 215//102
f 51//45 215//102 52//46
f 202//121 201//120 182//106
f 201//120 180//104 182//106
f 227//136 217//127 219//129
f 159//95 186//109 219//129
f 227//136 219//129 186//109
f 186//109 159//95 228//137
f 186//109 228//137 229//138
f 186//109 229//138 230//139
f 230//139 226//135 186//109
f 186//109 225//134 182//106
f 186//109 182//106 181//105
f 186//109 181//105 231//140
f 215//102 216//103 53//47
f 215//102 53//47 52//46
f 216//103 44//38 54//48
f 216//103 54//48 53//47
f 44//38 42//36 55//49
f 44//38 55//49 54//48
f 42//36 191//85 20//20
f 42//36 20//20 55//49
f 26//25 20//20 191//85
f 26//25 191//85 38//33
f 232//141 9//9 8//8
f 232//141 8//8 32//4
f 2//2 169//18 8//8
f 7//7 114//82 15//15
f 15//15 2//2 8//8
f 219//129 160//96 159//95
f 159//95 164//99 228//137
f 174//101 190//107 15//15
f 147//83 15//15 190//107
f 229//138 228//137 205//124
f 164//99 205//124 228//137
f 147//83 2//2 15//15
f 229//138 205//124 230//139
f 204//123 230//139 205//124
f 190//107 174//101 207//94
f 116//84 207//94 174//101
f 207//94 116//84 183//107
f 203//122 226//135 230//139
f 203//122 230//139 204//123
f 226//135 203//122 225//134
f 202//121 225//134 203//122
f 184//86 2//2 134//80
f 184//86 176//34 2//2
f 202//121 182//106 225//134
f 155//93 133//88 126//78
f 187//110 231//140 181//105
f 180//104 187//110 181//105
f 139//88 137//38 141//89
f 134//80 2//2 135//77
f 231//140 187//110 186//109
f 2//2 138//36 135//77
f 185//108 200//119 186//109
f 141//89 177//103 146//91
f 160//96 219//129 218//128
f 118//14 117//16 108//67
f 118//14 108//67 166//66
f 227//136 186//109 200//119
f 169//18 168//17 32//4
f 117//16 32//4 168//17
f 227//136 200//119 217//127
f 199//118 217//127 200//119
f 34//30 7//7 31//29
f 9//9 31//29 7//7
f 176//34 3//3 2//2
f 169//18 2//2 1//1
f 31//29 9//9 232//141
f 31//29 232//141 29//27
f 217//127 199//118 220//130
f 198//117 220//130 199//118
f 223//133 220//130 197//116
f 198//117 197//116 220//130
f 232//141 4//4 6//6
f 232//141 6//6 206//4
f 101//35 29//27 206//4
f 30//28 29//27 101//35
f 232//141 206//4 29//27
f 222//132 223//133 196//115
f 197//116 196//115 223//133
f 18//18 232//141 32//4
f 4//4 232//141 18//18
f 221//131 222//132 195//114
f 196//115 195//114 222//132
f 195//114 208//125 221//131
f 103//80 127//86 104//81
f 102//79 94//75 96//77
f 96//77 95//76 133//88
f 127//86 40//34 104//81
f 32//4 104//81 40//34
f 208//125 193//112 211//126
f 218//128 211//126 194//113
f 192//111 194//113 211//126
f 145//91 215//102 92//73
f 133//88 45//39 140//89
f 44//38 216//103 140//89
f 93//74 92//73 224//98
f 224//98 210//93 93//74
f 206//4 93//74 210//93
f 214//100 224//98 92//73
f 218//128 194//113 160//96
f 93//74 206//4 97//78
f 97//78 206//4 98//76
f 206//4 6//6 100//75
f 206//4 100//75 98//76
f 103//80 102//79 96//77
f 140//89 45//39 44//38
