
v -11.860000 2.000000 -3.900000
v -11.860000 0.000000 -3.900000
v -11.860000 -0.000000 3.900000
v -11.860000 2.000000 3.900000
v 11.840000 9.600000 3.900001
v 11.840000 -0.000000 3.900000
v 11.840000 9.600000 2.400001
v 8.641000 9.600000 -2.282999
v 11.840000 9.600000 -3.899999
v 7.890000 9.600000 -2.399999
v 5.459000 9.600000 -3.899999
v 7.890000 9.600000 2.400001
v 5.459000 9.600000 2.400001
v 3.940000 9.600000 3.900001
v -4.553000 2.003000 -1.531000
v -4.999000 2.003000 -1.303000
v -10.353000 2.003000 -2.402000
v -4.059000 0.000000 -1.609000
v -4.059000 2.003000 -1.609000
v -10.353000 2.003000 2.403000
v -4.999000 2.003000 1.286000
v -4.553000 2.003000 1.513000
v -3.564000 2.003000 1.513000
v -2.443000 2.003000 2.403000
v -4.059000 2.003000 1.591000
v 10.321000 9.600000 0.000001
v -4.553000 0.000000 -1.531000
v 9.319000 9.600000 -1.941999
v 9.856000 9.600000 -1.410999
v 10.202000 9.600000 -0.741999
v -5.353000 2.003000 -0.949000
v -5.581000 2.003000 -0.503000
v -5.659000 2.003000 -0.009000
v -5.581000 2.003000 0.486000
v -5.353000 2.003000 0.932000
v -4.999000 0.000000 -1.303000
v 2.419000 2.003000 0.486000
v 2.419000 -0.000000 0.486000
v 2.647000 2.003000 0.932000
v 11.840000 0.000000 -3.900000
v -5.353000 0.000000 -0.949000
v 10.323000 -0.000000 2.403000
v 10.323000 0.000000 -2.402000
v -10.353000 -0.000000 2.403000
v -10.353000 0.000000 -2.402000
v 2.647000 -0.000000 0.932000
v 7.139000 9.600000 -2.282999
v 6.461000 9.600000 -1.941999
v 3.001000 2.003000 1.286000
v -5.581000 0.000000 -0.503000
v 5.923000 9.600000 -1.410999
v 5.578000 9.600000 -0.741999
v 3.001000 -0.000000 1.286000
v 8.641000 9.600000 2.283001
v 9.319000 9.600000 1.942001
v 9.856000 9.600000 1.411001
v -5.659000 0.000000 -0.009000
v 8.641000 11.300000 -2.282999
v 9.856000 11.300000 1.411001
v 10.202000 11.300000 0.742001
v 10.321000 11.300000 0.000001
v 10.202000 11.300000 -0.741999
v 9.856000 11.300000 -1.410999
v 9.319000 11.300000 -1.941999
v 3.447000 -0.000000 1.513000
v 3.447000 2.003000 1.513000
v 5.578000 9.600000 0.742001
v 5.923000 9.600000 1.411001
v 5.459000 9.600000 0.000001
v 3.940000 9.600000 -3.899999
v 2.419000 0.000000 -0.503000
v 2.647000 0.000000 -0.949000
v 2.341000 0.000000 -0.009000
v 3.001000 0.000000 -1.303000
v 3.447000 0.000000 -1.531000
v 3.941000 0.000000 -1.609000
v 4.436000 0.000000 -1.531000
v 4.882000 0.000000 -1.303000
v 5.236000 0.000000 -0.949000
v 5.463000 0.000000 -0.503000
v 5.541000 0.000000 -0.009000
v 5.459000 11.300000 0.000001
v 5.578000 11.300000 0.742001
v 5.578000 11.300000 -0.741999
v 5.923000 11.300000 -1.410999
v 5.923000 11.300000 1.411001
v 6.461000 11.300000 -1.941999
v 7.139000 11.300000 -2.282999
v 6.461000 11.300000 1.942001
v 7.139000 11.300000 2.283001
v 3.940000 2.003000 1.590800
v 3.940000 2.003000 2.403000
v 3.940000 2.003000 -2.402000
v 3.940000 8.103000 -2.401999
v 3.940000 8.100000 -1.608799
v 6.461000 9.600000 1.942001
v 7.139000 9.600000 2.283001
v 10.202000 9.600000 0.742001
v 3.941000 -0.000000 1.591000
v 5.463000 -0.000000 0.486000
v 5.236000 -0.000000 0.932000
v 4.882000 -0.000000 1.286000
v 4.436000 -0.000000 1.513000
v 3.941000 8.100000 1.591001
v 4.436000 8.100000 1.513001
v 9.319000 11.300000 1.942001
v 8.641000 11.300000 2.283001
v -3.564000 -0.000000 1.513000
v 7.890000 11.300000 2.400002
v 7.890000 11.300000 -2.399999
v -5.581000 -0.000000 0.486000
v -3.564000 0.000000 -1.531000
v -3.118000 0.000000 -1.303000
v -2.764000 0.000000 -0.949000
v -5.353000 -0.000000 0.932000
v -2.537000 0.000000 -0.503000
v -2.459000 0.000000 -0.009000
v -4.059000 -0.000000 1.591000
v -2.764000 2.003000 0.932000
v -3.118000 2.003000 1.286000
v -3.118000 -0.000000 1.286000
v -4.999000 -0.000000 1.286000
v -4.553000 -0.000000 1.513000
v -2.537000 -0.000000 0.486000
v -2.764000 -0.000000 0.932000
v 3.940000 8.103000 2.403001
v 3.940000 8.100000 1.590801
v -3.564000 2.003000 -1.531000
v -2.443000 2.003000 -2.402000
v 10.323000 8.103000 2.403001
v -2.537000 2.003000 0.486000
v 4.882000 8.100000 -1.302999
v 5.236000 8.100000 -0.948999
v 3.941000 8.100000 -1.608999
v 4.436000 8.100000 -1.530999
v 3.447000 2.003000 -1.531000
v 3.001000 2.003000 -1.303000
v 2.647000 2.003000 -0.949000
v 2.419000 2.003000 -0.503000
v 5.541000 8.100000 -0.008999
v 5.463000 8.100000 0.486001
v 3.940000 2.003000 -1.608800
v 5.463000 8.100000 -0.502999
v 4.882000 8.100000 1.286001
v 5.236000 8.100000 0.932001
v -2.764000 2.003000 -0.949000
v -2.459000 2.003000 -0.009000
v -2.537000 2.003000 -0.503000
v 2.341000 2.003000 -0.009000
v 10.323000 8.103000 -2.401999
v -3.118000 2.003000 -1.303000
vn -0.6743 0.4239 -0.6046
vn -0.5773 -0.5773 -0.5773
vn -0.5773 -0.5773 0.5773
vn -0.6743 0.4239 0.6046
vn 0.5773 0.5773 0.5773
vn 0.5773 -0.5773 0.5773
vn 0.7071 0.7071 0.0000
vn 0.2041 0.7437 -0.6365
vn 0.5773 0.5773 -0.5773
vn 0.0000 0.7434 -0.6688
vn 0.0000 0.7071 -0.7071
vn 0.0000 0.7434 0.6688
vn 0.0000 1.0000 0.0000
vn -0.1669 0.7322 0.6603
vn -0.2066 -0.7443 -0.6351
vn -0.3931 -0.7439 -0.5404
vn -0.0001 -0.6736 -0.7390
vn -0.0001 -0.7439 -0.6683
vn 0.5773 -0.5773 -0.5773
vn -0.3925 -0.7441 0.5405
vn -0.2062 -0.7441 0.6355
vn 0.2060 -0.7441 0.6355
vn 0.0000 -0.7071 -0.7071
vn -0.0001 -0.7439 0.6683
vn 0.6676 0.7445 0.0000
vn -0.2287 -0.6733 -0.7030
vn 0.3898 0.7440 -0.5426
vn 0.5382 0.7440 -0.3959
vn 0.6340 0.7446 -0.2088
vn -0.5404 -0.7439 -0.3931
vn -0.6351 -0.7443 -0.2066
vn -0.6683 -0.7439 -0.0001
vn -0.6351 -0.7443 0.2065
vn -0.5404 -0.7439 0.3931
vn -0.4348 -0.6737 -0.5976
vn -0.7031 -0.6733 0.2286
vn -0.5976 -0.6737 -0.4348
vn -0.3015 -0.9045 -0.3015
vn -0.3015 -0.9045 0.3015
vn 0.3015 -0.9045 -0.3015
vn 0.3015 -0.9045 0.3015
vn -0.5976 -0.6737 0.4348
vn -0.2041 0.7437 -0.6365
vn -0.3896 0.7439 -0.5429
vn -0.7030 -0.6733 -0.2287
vn -0.5380 0.7443 -0.3956
vn -0.6343 0.7444 -0.2085
vn -0.4343 -0.6735 0.5981
vn 0.2041 0.7437 0.6365
vn 0.3898 0.7440 0.5426
vn 0.5382 0.7440 0.3959
vn -0.7390 -0.6736 -0.0001
vn 0.2256 0.6738 -0.7036
vn 0.5954 0.6736 0.4379
vn 0.7024 0.6731 0.2313
vn 0.7395 0.6731 0.0000
vn 0.7024 0.6731 -0.2313
vn 0.5954 0.6736 -0.4379
vn 0.4312 0.6735 -0.6003
vn -0.2281 -0.6735 0.7031
vn -0.2061 -0.7441 0.6355
vn -0.6343 0.7444 0.2085
vn -0.5380 0.7443 0.3956
vn -0.6676 0.7445 0.0000
vn -0.1669 0.7322 -0.6603
vn 0.2286 -0.6733 -0.7031
vn 0.4348 -0.6737 -0.5976
vn 0.5981 -0.6735 -0.4343
vn 0.7031 -0.6735 -0.2281
vn 0.7390 -0.6736 -0.0001
vn -0.7395 0.6731 0.0000
vn -0.7024 0.6732 0.2309
vn -0.7024 0.6732 -0.2309
vn -0.5956 0.6734 -0.4379
vn -0.5956 0.6734 0.4379
vn -0.4309 0.6737 -0.6004
vn -0.2256 0.6738 -0.7036
vn -0.4309 0.6737 0.6004
vn -0.2256 0.6738 0.7036
vn 0.1423 -0.3458 0.9274
vn 0.3015 -0.3015 -0.9045
vn 0.3015 -0.3015 0.9045
vn 0.8827 0.3544 -0.3087
vn -0.3896 0.7439 0.5429
vn -0.2041 0.7437 0.6365
vn 0.6340 0.7446 0.2088
vn -0.0001 -0.6736 0.7390
vn 0.7031 -0.6735 0.2280
vn 0.5981 -0.6735 0.4343
vn 0.4343 -0.6735 0.5981
vn 0.2280 -0.6735 0.7031
vn -0.0152 0.6696 0.7425
vn 0.2280 0.6735 0.7031
vn 0.4312 0.6735 0.6003
vn 0.2256 0.6738 0.7036
vn 0.0000 0.6740 0.7387
vn 0.0000 0.6740 -0.7387
vn 0.5405 -0.7441 0.3925
vn 0.3925 -0.7441 0.5405
vn 0.8827 0.3543 0.3087
vn 0.2065 -0.7443 -0.6351
vn 0.0000 -0.7071 0.7071
vn 0.6355 -0.7441 0.2060
vn 0.4348 0.6737 -0.5976
vn 0.5981 0.6735 -0.4343
vn -0.0152 0.6696 -0.7425
vn 0.2286 0.6733 -0.7031
vn 0.7390 0.6736 -0.0001
vn 0.7031 0.6735 0.2280
vn 0.1422 -0.3458 -0.9275
vn 0.7031 0.6735 -0.2281
vn 0.4343 0.6735 0.5981
vn 0.5981 0.6735 0.4343
vn 0.5405 -0.7441 -0.3925
vn 0.6683 -0.7439 -0.0001
vn 0.6355 -0.7441 -0.2062
vn 0.3931 -0.7439 -0.5404
usemtl color_30377.001
s 1
f 1//1 2//2 3//3
f 1//1 3//3 4//4
f 5//5 6//6 7//7
f 8//8 9//9 10//10
f 11//11 10//10 9//9
f 5//5 7//7 12//12
f 13//13 14//14 12//12
f 15//15 16//16 17//6
f 18//17 15//15 19//18
f 20//19 21//20 22//21
f 23//22 24//23 25//24
f 7//7 9//9 26//25
f 18//17 27//26 15//15
f 28//27 29//28 9//9
f 30//29 9//9 29//28
f 28//27 9//9 8//8
f 31//30 17//6 16//16
f 17//6 31//30 32//31
f 20//19 17//6 33//32
f 34//33 20//19 33//32
f 34//33 35//34 20//19
f 15//15 36//35 16//16
f 32//31 33//32 17//6
f 27//26 36//35 15//15
f 37//33 38//36 39//34
f 6//6 40//19 7//7
f 31//30 16//16 41//37
f 36//35 41//37 16//16
f 42//38 43//39 6//6
f 44//40 3//3 45//41
f 3//3 2//2 45//41
f 46//42 39//34 38//36
f 47//43 11//11 48//44
f 10//10 11//11 47//43
f 40//19 6//6 43//39
f 46//42 49//20 39//34
f 41//37 50//45 32//31
f 41//37 32//31 31//30
f 48//44 11//11 51//46
f 52//47 51//46 11//11
f 46//42 53//48 49//20
f 12//12 7//7 54//49
f 45//41 2//2 43//39
f 54//49 7//7 55//50
f 55//50 7//7 56//51
f 50//45 57//52 32//31
f 58//53 59//54 60//55
f 58//53 60//55 61//56
f 58//53 61//56 62//57
f 58//53 62//57 63//58
f 58//53 63//58 64//59
f 65//60 66//61 49//20
f 65//60 49//20 53//48
f 33//32 32//31 57//52
f 67//62 13//13 68//63
f 69//64 11//11 70//65
f 69//64 70//65 14//14
f 71//45 72//37 73//52
f 73//52 72//37 74//35
f 73//52 74//35 75//26
f 73//52 75//26 76//17
f 73//52 76//17 77//66
f 73//52 77//66 78//67
f 73//52 78//67 79//68
f 73//52 79//68 80//69
f 73//52 80//69 81//70
f 82//71 83//72 84//73
f 85//74 84//73 83//72
f 83//72 86//75 85//74
f 87//76 85//74 86//75
f 88//77 87//76 89//78
f 89//78 90//79 88//77
f 91//80 92//81 66//61
f 93//82 94//6 95//83
f 68//63 13//13 96//84
f 12//12 97//85 13//13
f 96//84 13//13 97//85
f 56//51 98//86 60//55
f 56//51 60//55 59//54
f 46//42 81//70 53//48
f 65//60 53//48 81//70
f 38//36 81//70 46//42
f 73//52 81//70 38//36
f 99//87 65//60 81//70
f 99//87 81//70 100//88
f 101//89 102//90 100//88
f 103//91 100//88 102//90
f 99//87 100//88 103//91
f 66//61 65//60 91//80
f 69//64 13//13 67//62
f 98//86 26//25 61//56
f 98//86 61//56 60//55
f 104//92 99//87 105//93
f 99//87 91//80 65//60
f 26//25 30//29 62//57
f 26//25 62//57 61//56
f 24//23 44//40 20//19
f 59//54 58//53 106//94
f 107//95 106//94 58//53
f 30//29 29//28 63//58
f 30//29 63//58 62//57
f 40//19 43//39 2//2
f 108//91 23//22 25//24
f 29//28 28//27 64//59
f 29//28 64//59 63//58
f 109//96 107//95 58//53
f 110//97 88//77 90//79
f 90//79 109//96 110//97
f 58//53 110//97 109//96
f 28//27 8//8 58//53
f 28//27 58//53 64//59
f 12//12 54//49 107//95
f 20//19 44//40 17//6
f 45//41 17//6 44//40
f 11//11 69//64 52//47
f 54//49 55//50 106//94
f 54//49 106//94 107//95
f 8//8 10//10 58//53
f 69//64 14//14 13//13
f 55//50 56//51 59//54
f 55//50 59//54 106//94
f 50//45 41//37 57//52
f 111//36 57//52 41//37
f 111//36 41//37 36//35
f 111//36 36//35 27//26
f 111//36 27//26 18//17
f 111//36 18//17 112//66
f 111//36 112//66 113//67
f 114//68 115//42 113//67
f 116//69 115//42 114//68
f 117//70 115//42 116//69
f 108//91 25//24 118//87
f 5//5 12//12 14//14
f 37//33 24//23 119//98
f 96//84 89//78 86//75
f 86//75 89//78 87//76
f 67//62 68//63 86//75
f 67//62 86//75 83//72
f 120//99 23//22 121//90
f 108//91 121//90 23//22
f 97//85 90//79 89//78
f 97//85 89//78 96//84
f 67//62 83//72 69//64
f 82//71 69//64 83//72
f 96//84 86//75 68//63
f 12//12 109//96 90//79
f 12//12 90//79 97//85
f 115//42 117//70 122//48
f 123//60 122//48 117//70
f 111//36 113//67 115//42
f 118//87 123//60 117//70
f 124//88 108//91 117//70
f 125//89 121//90 124//88
f 108//91 124//88 121//90
f 118//87 117//70 108//91
f 99//87 104//92 91//80
f 10//10 110//97 58//53
f 84//73 52//47 69//64
f 84//73 69//64 82//71
f 107//95 109//96 12//12
f 10//10 47//43 88//77
f 10//10 88//77 110//97
f 121//90 125//89 119//98
f 121//90 119//98 120//99
f 94//6 126//19 127//100
f 127//100 95//83 94//6
f 47//43 48//44 87//76
f 47//43 87//76 88//77
f 91//80 127//100 92//81
f 48//44 51//46 85//74
f 48//44 85//74 87//76
f 44//40 24//23 42//38
f 128//101 19//18 129//102
f 15//15 17//6 19//18
f 129//102 19//18 17//6
f 1//1 14//14 70//65
f 51//46 52//47 84//73
f 51//46 84//73 85//74
f 130//2 126//19 94//6
f 131//103 119//98 124//88
f 125//89 124//88 119//98
f 132//104 79//68 78//67
f 70//65 40//19 1//1
f 92//81 130//2 42//38
f 126//19 130//2 92//81
f 14//14 4//4 6//6
f 133//105 132//104 105//93
f 95//83 105//93 134//106
f 132//104 135//107 105//93
f 134//106 105//93 135//107
f 78//67 77//66 132//104
f 93//82 136//15 129//102
f 129//102 137//16 138//30
f 138//30 139//31 129//102
f 2//2 1//1 40//19
f 140//108 105//93 141//109
f 45//41 43//39 129//102
f 17//6 45//41 129//102
f 93//82 95//83 142//110
f 127//100 104//92 95//83
f 104//92 105//93 95//83
f 143//111 133//105 105//93
f 144//112 141//109 105//93
f 145//113 141//109 144//112
f 131//103 37//33 119//98
f 129//102 139//31 146//114
f 147//115 148//116 149//32
f 4//4 14//14 1//1
f 143//111 105//93 140//108
f 131//103 147//115 37//33
f 137//16 129//102 136//15
f 34//33 33//32 111//36
f 79//68 133//105 143//111
f 147//115 131//103 117//70
f 124//88 117//70 131//103
f 111//36 33//32 57//52
f 142//110 136//15 93//82
f 37//33 39//34 24//23
f 132//104 133//105 79//68
f 21//20 20//19 35//34
f 92//81 42//38 24//23
f 93//82 129//102 43//39
f 111//36 35//34 34//33
f 11//11 9//9 40//19
f 146//114 139//31 148//116
f 95//83 134//106 142//110
f 23//22 120//99 24//23
f 20//19 22//21 24//23
f 120//99 119//98 24//23
f 35//34 111//36 115//42
f 40//19 9//9 7//7
f 76//17 75//26 142//110
f 117//70 148//116 147//115
f 94//6 93//82 150//3
f 43//39 150//3 93//82
f 136//15 142//110 75//26
f 148//116 117//70 116//69
f 150//3 130//2 94//6
f 35//34 122//48 21//20
f 49//20 66//61 24//23
f 92//81 24//23 66//61
f 101//89 145//113 144//112
f 101//89 144//112 102//90
f 6//6 3//3 42//38
f 115//42 122//48 35//34
f 44//40 42//38 3//3
f 100//88 141//109 145//113
f 100//88 145//113 101//89
f 148//116 114//68 146//114
f 100//88 81//70 141//109
f 150//3 43//39 130//2
f 42//38 130//2 43//39
f 22//21 21//20 123//60
f 122//48 123//60 21//20
f 126//19 92//81 127//100
f 116//69 114//68 148//116
f 104//92 127//100 91//80
f 129//102 146//114 151//117
f 30//29 26//25 9//9
f 26//25 98//86 7//7
f 56//51 7//7 98//86
f 3//3 6//6 4//4
f 137//16 136//15 74//35
f 75//26 74//35 136//15
f 140//108 141//109 81//70
f 11//11 40//19 70//65
f 25//24 24//23 22//21
f 151//117 146//114 113//67
f 114//68 113//67 146//114
f 5//5 14//14 6//6
f 140//108 81//70 143//111
f 80//69 143//111 81//70
f 123//60 25//24 22//21
f 143//111 80//69 79//68
f 151//117 128//101 129//102
f 118//87 25//24 123//60
f 113//67 128//101 151//117
f 137//16 72//37 138//30
f 132//104 77//66 135//107
f 113//67 112//66 128//101
f 74//35 72//37 137//16
f 134//106 135//107 76//17
f 77//66 76//17 135//107
f 149//32 148//116 139//31
f 128//101 112//66 19//18
f 76//17 142//110 134//106
f 139//31 138//30 71//45
f 112//66 18//17 19//18
f 72//37 71//45 138//30
f 102//90 144//112 105//93
f 71//45 73//52 139//31
f 149//32 139//31 73//52
f 147//115 149//32 37//33
f 149//32 73//52 37//33
f 73//52 38//36 37//33
f 99//87 103//91 105//93
f 103//91 102//90 105//93
f 49//20 24//23 39//34
