
v 11.857791 9.754645 3.960564
v 11.857791 0.154645 3.960562
v 11.857791 0.154647 -3.839439
v 11.857791 9.754647 -3.839436
v 6.616791 11.454646 -1.881436
v 10.427791 11.454646 0.060564
v 7.285791 11.454647 -2.222436
v 6.085791 11.454646 -1.350436
v 5.744791 11.454646 -0.681436
v 5.627791 11.454646 0.060564
v 8.027791 11.454647 -2.339436
v 10.310791 11.454646 -0.681436
v 9.969790 11.454646 -1.350436
v 9.438791 11.454646 -1.881436
v 8.769791 11.454647 -2.222436
v -6.685209 9.754647 -3.839436
v -11.942209 0.154647 -3.839439
v -11.942209 9.754647 -3.839436
v 5.235791 0.154646 -0.874439
v 3.021791 0.154646 -1.228439
v 4.885791 0.154646 -1.228439
v 5.461791 0.154646 -0.428439
v 2.445791 0.154646 -0.428439
v 5.538791 0.154646 0.065561
v -5.583209 8.254646 -0.422437
v -2.793209 8.254646 -0.868437
v -5.358209 8.254646 -0.868437
v -3.144209 8.254646 -1.222437
v 2.427791 9.754646 0.060564
v 2.310791 9.754646 0.802564
v 5.744791 9.754646 0.802564
v 5.744791 11.454646 0.802564
v 6.085791 11.454646 1.471564
v 6.616791 11.454646 2.002564
v 7.285791 11.454645 2.343564
v 8.027791 11.454645 2.460564
v 10.310791 11.454646 0.802564
v 8.769791 11.454645 2.343564
v 9.438791 11.454646 2.002564
v 9.969790 11.454646 1.471564
v -4.075209 8.254646 1.671563
v -3.585209 8.254646 1.593563
v -5.007209 8.254646 1.366563
v -4.565209 8.254646 1.593563
v -3.144209 8.254646 1.366563
v -5.358209 8.254646 1.012563
v 4.885791 0.154646 1.360561
v 3.021791 0.154646 1.360561
v 5.235791 0.154646 1.006561
v 4.443791 0.154646 1.587561
v 2.367791 0.154646 0.065561
v -8.714210 9.754647 -2.222436
v -9.383209 9.754646 -1.881436
v -9.383209 11.454646 -1.881436
v -8.714210 11.454647 -2.222436
v 10.360791 0.154645 2.463561
v 10.360791 0.154647 -2.341439
v -9.914209 9.754646 -1.350436
v -9.914209 11.454646 -1.350436
v 10.427791 9.754646 0.060564
v 10.310791 9.754646 -0.681436
v -2.568209 0.154646 0.566561
v -5.661209 0.154646 0.071561
v -2.490209 0.154646 0.071561
v -10.255209 9.754646 -0.681436
v -10.255209 11.454646 -0.681436
v -10.372210 9.754646 0.060564
v -10.372210 11.454646 0.060564
v 9.969790 9.754646 -1.350436
v 3.021791 8.254646 -1.228437
v 2.670791 8.254646 -0.874437
v 5.235791 8.254646 -0.874437
v 5.461791 8.254646 -0.428437
v 9.438791 9.754646 -1.881436
v -3.585209 0.154646 -1.450439
v -3.144209 0.154646 -1.222439
v -4.075209 0.154646 -1.528439
v -2.793209 0.154646 -0.868439
v -5.358209 0.154646 -0.868439
v -2.568209 0.154646 -0.422439
v -5.583209 0.154646 -0.422439
v 8.769791 9.754647 -2.222436
v 8.027791 9.754647 -2.339436
v 2.670791 8.254646 1.006563
v 3.021791 8.254646 1.360563
v 3.463791 8.254646 1.587563
v 3.953790 8.254646 1.665563
v 7.285791 9.754647 -2.222436
v -2.793209 0.154646 1.012561
v -5.583209 0.154646 0.566561
v -4.075209 0.154646 1.671561
v -5.007209 0.154646 1.366561
v -3.585209 0.154646 1.593561
v -3.144209 0.154646 1.366561
v -10.255209 9.754646 0.802564
v -9.914209 9.754646 1.471564
v -9.914209 11.454646 1.471564
v -10.255209 11.454646 0.802564
v -9.383209 9.754646 2.002564
v -9.383209 11.454646 2.002564
v 6.616791 9.754646 -1.881436
v -8.714210 9.754645 2.343564
v -8.714210 11.454645 2.343564
v 6.085791 9.754646 -1.350436
v -7.972209 9.754645 2.460564
v -7.972209 11.454645 2.460564
v 5.744791 9.754646 -0.681436
v -7.230209 9.754645 2.343564
v -7.230209 11.454645 2.343564
v 2.445791 0.154646 0.560561
v 2.670791 0.154646 -0.874439
v 3.463791 0.154646 -1.456439
v 3.953790 0.154646 -1.534439
v 4.443791 0.154646 -1.456439
v -6.561209 9.754646 2.002564
v -6.561209 11.454646 2.002564
v 5.627791 9.754646 0.060564
v -2.568209 8.254646 -0.422437
v 3.463791 0.154646 1.587561
v 3.953790 0.154646 1.665561
v 2.670791 0.154646 1.006561
v 5.461791 0.154646 0.560561
v -5.007209 8.254646 -1.222437
v -4.565209 8.254646 -1.450437
v -5.007209 0.154646 -1.222439
v 6.085791 9.754646 1.471564
v -10.445210 0.154645 2.463561
v 10.360791 8.257645 2.463563
v 10.360791 8.257647 -2.341437
v 4.885791 8.254646 -1.228437
v 5.538791 8.254646 0.065563
v 3.463791 8.254646 -1.456437
v 3.953790 8.254646 -1.534437
v 4.443791 8.254646 -1.456437
v 6.616791 9.754646 2.002564
v -2.568209 9.754645 3.960564
v 7.285791 9.754645 2.343564
v 5.461791 8.254646 0.560563
v 4.443791 8.254646 1.587563
v 4.885791 8.254646 1.360563
v 5.235791 8.254646 1.006563
v 8.027791 9.754645 2.460564
v -1.383209 11.454646 -1.881436
v 2.427791 11.454646 0.060564
v -0.714209 11.454647 -2.222436
v -1.914209 11.454646 -1.350436
v -2.254209 11.454646 -0.681436
v -2.372209 11.454646 0.060564
v 0.027791 11.454647 -2.339436
v 2.310791 11.454646 -0.681436
v 1.969791 11.454646 -1.350436
v 1.438791 11.454646 -1.881436
v 0.769791 11.454647 -2.222436
v 8.769791 9.754645 2.343564
v 9.438791 9.754646 2.002564
v 5.627791 9.754647 -3.839436
v -6.030209 9.754646 1.471564
v -6.030209 11.454646 1.471564
v -5.661209 8.254646 0.071563
v -5.583209 8.254646 0.566563
v 9.969790 9.754646 1.471564
v -5.690209 9.754646 0.802564
v -5.690209 11.454646 0.802564
v 10.310791 9.754646 0.802564
v -5.358209 0.154646 1.012561
v -5.572209 9.754646 0.060564
v 2.367791 8.254646 0.065563
v 2.445791 8.254646 0.560563
v 2.445791 8.254646 -0.428437
v -2.254209 9.754646 0.802564
v -2.372209 9.754646 0.060564
v -1.914209 9.754646 1.471564
v 2.483791 9.754645 2.460564
v -4.565209 0.154646 1.593561
v -6.030209 9.754646 -1.350436
v -1.914209 9.754646 -1.350436
v -6.561209 9.754646 -1.881436
v -5.690209 9.754646 -0.681436
v -2.254209 9.754646 -0.681436
v -4.565209 0.154646 -1.450439
v 2.310791 9.754646 -0.681436
v -11.942209 9.754645 3.960564
v -7.972209 9.754647 -2.339436
v -7.230209 9.754647 -2.222436
v -2.254209 11.454646 0.802564
v 2.310791 11.454646 0.802564
v -1.914209 11.454646 1.471564
v -1.383209 11.454646 2.002564
v -0.714209 11.454645 2.343564
v 0.027791 11.454645 2.460564
v 0.769791 11.454645 2.343564
v 1.438791 11.454646 2.002564
v 1.969791 11.454646 1.471564
v -10.445210 8.257647 -2.341437
v -10.445210 0.154647 -2.341439
v 1.969791 9.754646 -1.350436
v -2.793209 8.254646 1.012563
v -4.075209 8.254646 -1.528437
v -3.585209 8.254646 -1.450437
v 1.438791 9.754646 -1.881436
v 0.769791 9.754647 -2.222436
v 0.027791 9.754647 -2.339436
v -2.568209 8.254646 0.566563
v -2.490209 8.254646 0.071563
v -0.714209 9.754647 -2.222436
v -1.383209 9.754646 -1.881436
v -10.445210 8.257645 2.463563
v -1.383209 9.754646 2.002564
v -0.714209 9.754645 2.343564
v 0.027791 9.754645 2.460564
v 0.769791 9.754645 2.343564
v 1.438791 9.754646 2.002564
v 1.969791 9.754646 1.471564
v -11.942209 0.154645 3.960562
v -7.972209 11.454647 -2.339436
v -5.572209 11.454646 0.060564
v -5.690209 11.454646 -0.681436
v -6.030209 11.454646 -1.350436
v -6.561209 11.454646 -1.881436
v -7.230209 11.454647 -2.222436
vn 0.5773 0.5773 0.5773
vn 0.5773 -0.5773 0.5773
vn 0.5773 -0.5773 -0.5773
vn 0.5773 0.5773 -0.5773
vn -0.4345 0.6735 -0.5979
vn 0.7390 0.6737 0.0000
vn -0.2282 0.6734 -0.7031
vn -0.5979 0.6735 -0.4345
vn -0.7031 0.6734 -0.2282
vn -0.7390 0.6737 0.0000
vn 0.0000 0.6737 -0.7390
vn 0.7031 0.6734 -0.2282
vn 0.5979 0.6735 -0.4345
vn 0.4345 0.6735 -0.5979
vn 0.2282 0.6734 -0.7031
vn 0.0000 0.7071 -0.7071
vn -0.5773 -0.5773 -0.5773
vn -0.5773 0.5773 -0.5773
vn 0.5994 -0.6739 -0.4319
vn -0.4372 -0.6736 -0.5959
vn 0.4377 -0.6735 -0.5957
vn 0.7035 -0.6735 -0.2268
vn -0.7032 -0.6739 -0.2267
vn 0.7387 -0.6740 -0.0001
vn -0.7032 0.6739 -0.2267
vn 0.5997 0.6735 -0.4320
vn -0.5997 0.6735 -0.4320
vn 0.4374 0.6737 -0.5956
vn 0.6683 0.7439 0.0000
vn 0.6353 0.7442 0.2062
vn -0.6353 0.7442 0.2062
vn -0.7031 0.6734 0.2282
vn -0.5979 0.6735 0.4345
vn -0.4345 0.6735 0.5979
vn -0.2282 0.6734 0.7031
vn 0.0000 0.6737 0.7390
vn 0.7031 0.6734 0.2282
vn 0.2282 0.6734 0.7031
vn 0.4345 0.6735 0.5979
vn 0.5979 0.6735 0.4345
vn 0.0000 0.6734 0.7393
vn 0.2302 0.6732 0.7027
vn -0.4368 0.6734 0.5964
vn -0.2299 0.6733 0.7027
vn 0.4370 0.6735 0.5961
vn -0.5997 0.6735 0.4320
vn 0.4372 -0.6733 0.5962
vn -0.4368 -0.6734 0.5964
vn 0.5994 -0.6739 0.4319
vn 0.2299 -0.6733 0.7027
vn -0.7390 -0.6736 -0.0001
vn -0.2062 0.7442 -0.6353
vn -0.3927 0.7440 -0.5405
vn -0.3015 -0.9045 -0.3015
vn -0.3015 -0.9045 0.3015
vn -0.5405 0.7440 -0.3927
vn 0.6353 0.7442 -0.2062
vn 0.7032 -0.6738 0.2266
vn 0.7390 -0.6736 -0.0001
vn -0.6353 0.7442 -0.2062
vn -0.6683 0.7439 0.0000
vn 0.5405 0.7440 -0.3927
vn -0.4372 0.6736 -0.5959
vn 0.5994 0.6739 -0.4319
vn 0.7035 0.6735 -0.2268
vn 0.3927 0.7440 -0.5405
vn 0.2309 -0.6730 -0.7027
vn 0.4374 -0.6737 -0.5956
vn 0.0000 -0.6734 -0.7393
vn 0.5997 -0.6735 -0.4320
vn -0.5997 -0.6735 -0.4320
vn 0.7032 -0.6739 -0.2267
vn 0.2062 0.7442 -0.6353
vn 0.0000 0.7439 -0.6683
vn 0.5997 -0.6735 0.4320
vn -0.7032 -0.6738 0.2266
vn 0.0000 -0.6734 0.7393
vn 0.2302 -0.6732 0.7027
vn 0.4370 -0.6735 0.5961
vn -0.5405 0.7440 0.3927
vn -0.3927 0.7440 0.5405
vn -0.2062 0.7442 0.6353
vn 0.0000 0.7439 0.6683
vn 0.2062 0.7442 0.6353
vn -0.2305 -0.6731 -0.7027
vn 0.2305 -0.6731 -0.7027
vn 0.3927 0.7440 0.5405
vn 0.7032 0.6739 -0.2267
vn -0.2299 -0.6733 0.7027
vn -0.5997 -0.6735 0.4320
vn 0.7036 -0.6735 0.2267
vn -0.2305 0.6731 -0.7027
vn 0.3015 -0.9045 -0.3015
vn -0.5773 -0.5773 0.5773
vn 0.4377 0.6735 -0.5957
vn 0.7387 0.6740 -0.0001
vn 0.0000 0.6734 -0.7393
vn 0.2305 0.6731 -0.7027
vn 0.0000 0.7071 0.7071
vn 0.7036 0.6735 0.2267
vn 0.2299 0.6733 0.7027
vn 0.4372 0.6733 0.5962
vn 0.5994 0.6739 0.4319
vn -0.5983 0.6734 -0.4342
vn -0.7029 0.6737 -0.2282
vn -0.7392 0.6734 0.0000
vn 0.5406 0.7442 0.3923
vn 0.5983 0.6734 0.4342
vn -0.7390 0.6736 -0.0001
vn -0.7032 0.6738 0.2266
vn 0.5405 0.7440 0.3927
vn 0.6356 0.7439 0.2064
vn 0.7029 0.6737 0.2282
vn 0.6679 0.7442 0.0000
vn -0.6356 0.7439 0.2064
vn -0.6679 0.7442 0.0000
vn -0.5406 0.7442 0.3923
vn 0.0000 1.0000 0.0000
vn 0.5406 0.7442 -0.3923
vn -0.5406 0.7442 -0.3923
vn 0.6356 0.7439 -0.2064
vn -0.6356 0.7439 -0.2064
vn -0.5773 0.5773 0.5773
vn -0.7029 0.6737 0.2282
vn -0.5983 0.6734 0.4342
vn 0.3015 -0.9045 0.3015
vn 0.5997 0.6735 0.4320
vn 0.2309 0.6730 -0.7027
vn 0.7032 0.6738 0.2266
vn 0.7390 0.6736 -0.0001
vn 0.7392 0.6734 0.0000
vn 0.7029 0.6737 -0.2282
vn 0.5983 0.6734 -0.4342
usemtl color_30377.003
s 1
f 1//1 2//2 3//3
f 1//1 3//3 4//4
f 5//5 6//6 7//7
f 8//8 6//6 5//5
f 9//9 6//6 8//8
f 10//10 6//6 9//9
f 11//11 7//7 6//6
f 11//11 6//6 12//12
f 11//11 12//12 13//13
f 11//11 13//13 14//14
f 11//11 14//14 15//15
f 16//16 17//17 18//18
f 19//19 20//20 21//21
f 22//22 23//23 19//19
f 24//24 23//23 22//22
f 25//25 26//26 27//27
f 26//26 28//28 27//27
f 29//29 30//30 31//31
f 10//10 32//32 6//6
f 32//32 33//33 6//6
f 33//33 34//34 6//6
f 34//34 35//35 6//6
f 35//35 36//36 6//6
f 37//37 6//6 36//36
f 38//38 39//39 36//36
f 40//40 36//36 39//39
f 37//37 36//36 40//40
f 41//41 42//42 43//43
f 44//44 41//41 43//43
f 42//42 45//45 43//43
f 46//46 43//43 45//45
f 47//47 48//48 49//49
f 50//50 48//48 47//47
f 23//23 24//24 51//51
f 52//52 53//53 54//5
f 52//52 54//5 55//7
f 2//2 56//54 57//55
f 2//2 57//55 3//3
f 53//53 58//56 59//8
f 53//53 59//8 54//5
f 60//29 61//57 12//12
f 60//29 12//12 6//6
f 62//58 63//51 64//59
f 58//56 65//60 66//9
f 58//56 66//9 59//8
f 65//60 67//61 68//10
f 65//60 68//10 66//9
f 61//57 69//62 13//13
f 61//57 13//13 12//12
f 70//63 71//27 72//64
f 73//65 72//64 71//27
f 69//62 74//66 14//14
f 69//62 14//14 13//13
f 75//67 76//68 77//69
f 78//70 79//71 76//68
f 80//72 79//71 78//70
f 64//59 81//23 80//72
f 74//66 82//73 15//15
f 74//66 15//15 14//14
f 82//73 83//74 11//11
f 82//73 11//11 15//15
f 71//27 84//46 85//43
f 71//27 85//43 86//44
f 71//27 86//44 87//41
f 83//74 88//52 7//7
f 83//74 7//7 11//11
f 89//75 90//76 62//58
f 91//77 92//48 93//78
f 93//78 92//48 94//79
f 95//31 96//80 97//33
f 95//31 97//33 98//32
f 96//80 99//81 100//34
f 96//80 100//34 97//33
f 88//52 101//53 5//5
f 88//52 5//5 7//7
f 99//81 102//82 103//35
f 99//81 103//35 100//34
f 101//53 104//56 8//8
f 101//53 8//8 5//5
f 102//82 105//83 106//36
f 102//82 106//36 103//35
f 104//56 107//60 9//9
f 104//56 9//9 8//8
f 106//36 105//83 108//84
f 106//36 108//84 109//38
f 110//76 51//51 24//24
f 111//71 19//19 23//23
f 20//20 19//19 111//71
f 112//85 21//21 20//20
f 113//69 21//21 112//85
f 114//86 21//21 113//69
f 20//20 111//71 70//63
f 108//84 115//87 116//39
f 108//84 116//39 109//38
f 107//60 117//61 10//10
f 107//60 10//10 9//9
f 118//88 64//59 80//72
f 117//61 31//31 32//32
f 117//61 32//32 10//10
f 119//89 48//48 120//77
f 50//50 120//77 48//48
f 121//90 49//49 48//48
f 122//91 49//49 110//76
f 24//24 122//91 110//76
f 121//90 110//76 49//49
f 123//63 124//92 125//20
f 31//31 126//80 33//33
f 31//31 33//33 32//32
f 127//93 56//54 2//2
f 56//54 128//17 129//94
f 56//54 129//94 57//55
f 72//64 130//95 70//63
f 131//96 73//65 71//27
f 132//92 70//63 130//95
f 133//97 132//92 130//95
f 134//98 133//97 130//95
f 126//80 135//81 34//34
f 126//80 34//34 33//33
f 125//20 27//27 123//63
f 1//1 136//99 2//2
f 135//81 137//82 35//35
f 135//81 35//35 34//34
f 138//100 131//96 71//27
f 87//41 139//101 71//27
f 139//101 140//102 71//27
f 141//103 71//27 140//102
f 138//100 71//27 141//103
f 137//82 142//83 36//36
f 137//82 36//36 35//35
f 143//5 144//6 145//7
f 146//104 144//6 143//5
f 147//105 144//6 146//104
f 148//106 144//6 147//105
f 149//11 145//7 144//6
f 149//11 144//6 150//12
f 149//11 150//12 151//13
f 149//11 151//13 152//14
f 149//11 152//14 153//15
f 36//36 142//83 154//84
f 36//36 154//84 38//38
f 122//91 131//96 138//100
f 154//84 155//87 39//39
f 154//84 39//39 38//38
f 3//3 17//17 156//16
f 115//87 157//107 158//108
f 115//87 158//108 116//39
f 159//109 90//76 160//110
f 155//87 161//111 40//40
f 155//87 40//40 39//39
f 157//107 162//112 163//113
f 157//107 163//113 158//108
f 161//111 164//30 37//37
f 161//111 37//37 40//40
f 160//110 90//76 46//46
f 165//90 46//46 90//76
f 163//113 162//112 166//114
f 6//6 37//37 164//30
f 6//6 164//30 60//29
f 165//90 43//43 46//46
f 4//4 3//3 156//16
f 107//60 29//29 117//61
f 104//56 101//53 156//16
f 167//109 168//110 169//25
f 71//27 169//25 168//110
f 170//115 171//116 162//112
f 136//99 172//117 162//112
f 137//82 1//1 142//83
f 135//81 173//118 137//82
f 135//81 126//80 173//118
f 84//46 71//27 168//110
f 41//41 44//44 174//89
f 82//73 4//4 83//74
f 88//52 83//74 156//16
f 156//16 83//74 4//4
f 69//62 4//4 74//66
f 175//119 176//120 177//66
f 166//114 171//116 178//121
f 171//116 179//122 178//121
f 180//85 125//20 124//92
f 27//27 79//71 25//25
f 74//66 4//4 82//73
f 115//87 136//99 157//107
f 63//51 159//109 81//23
f 20//20 70//63 132//92
f 157//107 136//99 162//112
f 25//25 81//23 159//109
f 167//109 169//25 51//51
f 88//52 156//16 101//53
f 159//109 63//51 90//76
f 162//112 171//116 166//114
f 51//51 168//110 167//109
f 156//16 181//57 104//56
f 104//56 181//57 107//60
f 18//18 182//123 67//61
f 18//18 67//61 65//60
f 18//18 65//60 58//56
f 58//56 53//53 18//18
f 117//61 29//29 31//31
f 31//31 173//118 126//80
f 121//90 84//46 168//110
f 102//82 182//123 105//83
f 136//99 105//83 182//123
f 174//89 44//44 43//43
f 18//18 52//52 16//16
f 183//74 16//16 52//52
f 183//74 184//73 16//16
f 23//23 169//25 111//71
f 47//47 140//102 139//101
f 23//23 51//51 169//25
f 141//103 140//102 47//47
f 120//77 87//41 86//44
f 177//66 16//16 184//73
f 142//83 1//1 154//84
f 27//27 125//20 79//71
f 154//84 1//1 155//87
f 133//97 112//85 132//92
f 81//23 25//25 79//71
f 52//52 18//18 53//53
f 112//85 20//20 132//92
f 22//22 73//65 131//96
f 71//27 70//63 111//71
f 72//64 73//65 22//22
f 1//1 137//82 173//118
f 111//71 169//25 71//27
f 161//111 155//87 1//1
f 4//4 60//29 1//1
f 110//76 168//110 51//51
f 95//31 67//61 182//123
f 95//31 182//123 96//80
f 21//21 130//95 72//64
f 102//82 99//81 182//123
f 4//4 69//62 61//57
f 164//30 1//1 60//29
f 87//41 120//77 139//101
f 165//90 92//48 43//43
f 21//21 134//98 130//95
f 110//76 121//90 168//110
f 148//106 185//124 144//6
f 186//37 144//6 185//124
f 186//37 185//124 187//125
f 186//37 187//125 188//34
f 186//37 188//34 189//35
f 186//37 189//35 190//36
f 186//37 190//36 191//38
f 186//37 191//38 192//39
f 186//37 192//39 193//40
f 174//89 43//43 92//48
f 60//29 4//4 61//57
f 85//43 84//46 48//48
f 121//90 48//48 84//46
f 50//50 139//101 120//77
f 86//44 85//43 48//48
f 57//55 194//2 195//126
f 139//101 50//50 47//47
f 29//29 181//57 150//12
f 29//29 150//12 144//6
f 1//1 164//30 161//111
f 181//57 196//62 151//13
f 181//57 151//13 150//12
f 49//49 141//103 47//47
f 123//63 27//27 28//28
f 160//110 46//46 197//127
f 118//88 26//26 25//25
f 124//92 123//63 28//28
f 198//97 124//92 28//28
f 198//97 28//28 199//128
f 196//62 200//66 152//14
f 196//62 152//14 151//13
f 122//91 138//100 141//103
f 122//91 141//103 49//49
f 133//97 134//98 113//69
f 200//66 201//73 153//15
f 200//66 153//15 152//14
f 113//69 112//85 133//97
f 201//73 202//74 149//11
f 201//73 149//11 153//15
f 45//45 197//127 46//46
f 197//127 203//129 160//110
f 159//109 160//110 203//129
f 203//129 204//130 159//109
f 24//24 131//96 122//91
f 202//74 205//52 145//7
f 202//74 145//7 149//11
f 24//24 22//22 131//96
f 205//52 206//53 143//5
f 205//52 143//5 145//7
f 72//64 22//22 19//19
f 206//53 176//120 146//104
f 206//53 146//104 143//5
f 195//126 194//2 207//3
f 195//126 207//3 127//93
f 19//19 21//21 72//64
f 176//120 179//122 147//105
f 176//120 147//105 146//104
f 134//98 21//21 114//86
f 179//122 171//116 148//106
f 179//122 148//106 147//105
f 114//86 113//69 134//98
f 171//116 170//115 185//124
f 171//116 185//124 148//106
f 170//115 172//117 187//125
f 170//115 187//125 185//124
f 78//70 26//26 118//88
f 172//117 208//81 188//34
f 172//117 188//34 187//125
f 28//28 26//26 78//70
f 119//89 86//44 48//48
f 208//81 209//82 189//35
f 208//81 189//35 188//34
f 86//44 119//89 120//77
f 209//82 210//83 190//36
f 209//82 190//36 189//35
f 180//85 124//92 198//97
f 129//94 194//2 57//55
f 91//77 93//78 41//41
f 190//36 210//83 211//84
f 190//36 211//84 191//38
f 127//93 207//3 56//54
f 128//17 56//54 207//3
f 211//84 212//87 192//39
f 211//84 192//39 191//38
f 194//2 129//94 207//3
f 62//58 203//129 197//127
f 212//87 213//111 193//40
f 212//87 193//40 192//39
f 128//17 207//3 129//94
f 213//111 30//30 186//37
f 213//111 186//37 193//40
f 144//6 186//37 30//30
f 144//6 30//30 29//29
f 118//88 25//25 204//130
f 25//25 159//109 204//130
f 18//18 17//17 214//94
f 18//18 214//94 182//123
f 28//28 76//68 199//128
f 179//122 176//120 178//121
f 175//119 178//121 176//120
f 176//120 206//53 16//16
f 75//67 198//97 199//128
f 210//83 136//99 211//84
f 209//82 136//99 210//83
f 1//1 173//118 136//99
f 42//42 41//41 93//78
f 64//59 204//130 203//129
f 64//59 203//129 62//58
f 54//5 163//113 55//7
f 59//8 163//113 54//5
f 66//9 163//113 59//8
f 68//10 163//113 66//9
f 98//32 163//113 68//10
f 215//11 55//7 163//113
f 215//11 163//113 216//131
f 215//11 216//131 217//132
f 215//11 217//132 218//133
f 215//11 218//133 219//14
f 215//11 219//14 220//15
f 94//79 45//45 93//78
f 45//45 94//79 197//127
f 64//59 118//88 204//130
f 16//16 202//74 156//16
f 30//30 213//111 31//31
f 173//118 212//87 211//84
f 62//58 197//127 89//75
f 163//113 98//32 97//33
f 163//113 97//33 100//34
f 163//113 100//34 103//35
f 163//113 103//35 106//36
f 163//113 106//36 109//38
f 163//113 109//38 116//39
f 163//113 116//39 158//108
f 41//41 174//89 91//77
f 206//53 205//52 16//16
f 201//73 156//16 202//74
f 200//66 156//16 201//73
f 118//88 80//72 78//70
f 95//31 98//32 67//61
f 68//10 67//61 98//32
f 28//28 78//70 76//68
f 75//67 199//128 76//68
f 166//114 216//131 163//113
f 75//67 77//69 198//97
f 181//57 156//16 196//62
f 29//29 107//60 181//57
f 166//114 178//121 217//132
f 166//114 217//132 216//131
f 77//69 180//85 198//97
f 178//121 175//119 218//133
f 178//121 218//133 217//132
f 42//42 93//78 45//45
f 156//16 200//66 196//62
f 89//75 197//127 94//79
f 175//119 177//66 219//14
f 175//119 219//14 218//133
f 184//73 220//15 177//66
f 220//15 219//14 177//66
f 202//74 16//16 205//52
f 184//73 183//74 215//11
f 184//73 215//11 220//15
f 183//74 52//52 55//7
f 183//74 55//7 215//11
f 16//16 177//66 176//120
f 170//115 162//112 172//117
f 209//82 208//81 136//99
f 172//117 136//99 208//81
f 173//118 211//84 136//99
f 212//87 173//118 213//111
f 173//118 31//31 213//111
f 96//80 182//123 99//81
f 105//83 136//99 108//84
f 108//84 136//99 115//87
f 79//71 80//72 81//23
f 125//20 76//68 79//71
f 180//85 76//68 125//20
f 77//69 76//68 180//85
f 91//77 174//89 92//48
f 165//90 94//79 92//48
f 90//76 89//75 165//90
f 63//51 62//58 90//76
f 81//23 64//59 63//51
f 94//79 165//90 89//75
f 57//55 195//126 3//3
f 17//17 3//3 195//126
f 2//2 214//94 127//93
f 127//93 214//94 195//126
f 214//94 17//17 195//126
f 2//2 136//99 214//94
f 182//123 214//94 136//99
f 16//16 156//16 17//17
