v -7.900000 9.600000 -3.899999
v -7.900000 0.000000 -3.900000
v -7.900000 -0.000000 3.900000
v -7.900000 9.600000 3.900001
v -5.431000 11.300000 -1.941999
v -1.620000 11.300000 0.000001
v -4.762000 11.300000 -2.282999
v -5.962000 11.300000 -1.410999
v -6.303000 11.300000 -0.741999
v -6.420000 11.300000 0.000001
v -4.020000 11.300000 -2.399999
v -1.738000 11.300000 -0.741999
v -2.078000 11.300000 -1.410999
v -2.609000 11.300000 -1.941999
v -3.278000 11.300000 -2.282999
v -1.738000 11.300000 0.742001
v -6.303000 11.300000 0.742001
v -5.962000 11.300000 1.411001
v -5.431000 11.300000 1.942001
v -4.762000 11.300000 2.283001
v -4.020000 11.300000 2.400002
v -3.278000 11.300000 2.283001
v -2.609000 11.300000 1.942001
v -2.078000 11.300000 1.411001
v -1.620000 9.600000 0.000001
v -1.738000 9.600000 -0.741999
v -2.078000 9.600000 -1.410999
v -2.609000 9.600000 -1.941999
v -3.278000 9.600000 -2.282999
v -4.020000 9.600000 -2.399999
v -4.762000 9.600000 -2.282999
v -5.431000 9.600000 -1.941999
v -5.962000 9.600000 -1.410999
v -6.303000 9.600000 -0.741999
v -6.420000 9.600000 0.000001
v -6.303000 9.600000 0.742001
v -5.962000 9.600000 1.411001
v -5.431000 9.600000 1.942001
v -4.762000 9.600000 2.283001
v -4.020000 9.600000 2.400001
v -3.278000 9.600000 2.283001
v -2.609000 9.600000 1.942001
v -2.078000 9.600000 1.411001
v -1.738000 9.600000 0.742001
v 1.519000 9.600000 0.000001
v 1.638000 9.600000 -0.741999
v -1.620000 9.600000 -3.899999
v 1.519000 9.600000 3.900001
v 6.383000 -0.000000 2.403000
v 6.383000 8.103000 2.403001
v 6.383000 0.000000 -2.402000
v 1.983000 9.600000 1.411001
v 7.900000 -0.000000 3.900000
v -6.403000 -0.000000 2.403000
v 7.900000 0.000000 -3.900000
v -1.521000 0.000000 -0.503000
v -1.293000 0.000000 -0.949000
v -1.599000 0.000000 -0.009000
v -0.939000 0.000000 -1.303000
v -0.493000 0.000000 -1.531000
v 0.001000 0.000000 -1.609000
v 0.496000 0.000000 -1.531000
v 0.942000 0.000000 -1.303000
v 1.296000 0.000000 -0.949000
v 1.523000 0.000000 -0.503000
v 1.601000 0.000000 -0.009000
v 1.523000 -0.000000 0.486000
v -1.293000 -0.000000 0.932000
v -0.939000 -0.000000 1.286000
v -0.493000 -0.000000 1.513000
v -1.521000 -0.000000 0.486000
v 0.001000 -0.000000 1.591000
v 1.296000 -0.000000 0.932000
v 0.496000 -0.000000 1.513000
v 0.942000 -0.000000 1.286000
v 4.701000 11.300000 -2.282999
v 5.916000 11.300000 1.411001
v 6.262000 11.300000 0.742001
v 6.381000 11.300000 0.000001
v 6.262000 11.300000 -0.741999
v 5.916000 11.300000 -1.410999
v 5.379000 11.300000 -1.941999
v 1.519000 11.300000 0.000001
v 1.638000 11.300000 0.742001
v 1.638000 11.300000 -0.741999
v 1.983000 11.300000 -1.410999
v 1.983000 11.300000 1.411001
v 2.521000 11.300000 -1.941999
v 3.199000 11.300000 -2.282999
v 2.521000 11.300000 1.942001
v 3.199000 11.300000 2.283001
v 3.950000 11.300000 -2.399999
v 5.916000 9.600000 1.411001
v 6.262000 9.600000 0.742001
v 6.381000 9.600000 0.000001
v 6.262000 9.600000 -0.741999
v 5.916000 9.600000 -1.410999
v 5.379000 9.600000 -1.941999
v 4.701000 9.600000 -2.282999
v 1.638000 9.600000 0.742001
v 3.950000 9.600000 -2.399999
v 3.199000 9.600000 -2.282999
v 2.521000 9.600000 -1.941999
v 1.983000 9.600000 -1.410999
v 1.296000 8.100000 -0.948999
v 0.942000 8.100000 -1.302999
v 0.942000 8.100000 1.286001
v -0.493000 8.100000 -1.530999
v 0.001000 8.100000 1.591001
v 0.001000 8.100000 -1.608999
v 0.496000 8.100000 -1.530999
v -0.939000 8.100000 -1.302999
v -1.293000 8.100000 -0.948999
v -1.521000 8.100000 -0.502999
v -1.599000 8.100000 -0.008999
v 1.523000 8.100000 -0.502999
v 1.601000 8.100000 -0.008999
v 0.496000 8.100000 1.513001
v 1.296000 8.100000 0.932001
v 1.523000 8.100000 0.486001
v -1.521000 8.100000 0.486001
v -1.293000 8.100000 0.932001
v -0.939000 8.100000 1.286001
v -0.493000 8.100000 1.513001
v -6.403000 0.000000 -2.402000
v 7.900000 9.600000 -3.899999
v 7.900000 9.600000 3.900001
v -6.403000 8.103000 -2.401999
v -6.403000 8.103000 2.403001
v 5.379000 11.300000 1.942001
v 3.950000 11.300000 2.400002
v 4.701000 11.300000 2.283001
v 4.701000 9.600000 2.283001
v 5.379000 9.600000 1.942001
v 2.521000 9.600000 1.942001
v 3.199000 9.600000 2.283001
v 3.950000 9.600000 2.400001
v 6.383000 8.103000 -2.401999
vn -0.5773 0.5773 -0.5773
vn -0.5773 -0.5773 -0.5773
vn -0.5773 -0.5773 0.5773
vn -0.5773 0.5773 0.5773
vn -0.4345 0.6735 -0.5979
vn 0.7392 0.6734 0.0000
vn -0.2282 0.6734 -0.7031
vn -0.5979 0.6735 -0.4345
vn -0.7031 0.6734 -0.2282
vn -0.7390 0.6737 0.0000
vn 0.0000 0.6737 -0.7390
vn 0.7029 0.6737 -0.2282
vn 0.5983 0.6734 -0.4342
vn 0.4345 0.6735 -0.5979
vn 0.2282 0.6734 -0.7031
vn 0.7029 0.6737 0.2282
vn -0.7031 0.6734 0.2282
vn -0.5979 0.6735 0.4345
vn -0.4345 0.6735 0.5979
vn -0.2282 0.6734 0.7031
vn 0.0000 0.6737 0.7390
vn 0.2282 0.6734 0.7031
vn 0.4345 0.6735 0.5979
vn 0.5983 0.6734 0.4342
vn 0.6679 0.7442 0.0000
vn 0.6356 0.7439 -0.2064
vn 0.5406 0.7442 -0.3923
vn 0.3927 0.7440 -0.5405
vn 0.2062 0.7442 -0.6353
vn 0.0000 0.7439 -0.6683
vn -0.2062 0.7442 -0.6353
vn -0.3927 0.7440 -0.5405
vn -0.5405 0.7440 -0.3927
vn -0.6353 0.7442 -0.2062
vn -0.6683 0.7439 0.0000
vn -0.6353 0.7442 0.2062
vn -0.5405 0.7440 0.3927
vn -0.3927 0.7440 0.5405
vn -0.2062 0.7442 0.6353
vn 0.0000 0.7439 0.6683
vn 0.2062 0.7442 0.6353
vn 0.3927 0.7440 0.5405
vn 0.5406 0.7442 0.3923
vn 0.6356 0.7439 0.2064
vn -0.6676 0.7445 0.0000
vn -0.6343 0.7444 -0.2085
vn 0.0000 0.7071 -0.7071
vn 0.0000 0.7071 0.7071
vn -0.3015 -0.9045 -0.3015
vn -0.3015 -0.9045 0.3015
vn -0.5380 0.7443 0.3956
vn 0.5773 -0.5773 0.5773
vn 0.3015 -0.9045 -0.3015
vn 0.5773 -0.5773 -0.5773
vn -0.7030 -0.6733 -0.2287
vn -0.5976 -0.6737 -0.4348
vn -0.7390 -0.6736 -0.0001
vn -0.4348 -0.6737 -0.5976
vn -0.2287 -0.6733 -0.7030
vn -0.0001 -0.6736 -0.7390
vn 0.2286 -0.6733 -0.7031
vn 0.4348 -0.6737 -0.5976
vn 0.5981 -0.6735 -0.4343
vn 0.7031 -0.6735 -0.2281
vn 0.7390 -0.6736 -0.0001
vn 0.7031 -0.6735 0.2280
vn -0.5976 -0.6737 0.4348
vn -0.4343 -0.6735 0.5981
vn -0.2281 -0.6735 0.7031
vn -0.7031 -0.6733 0.2286
vn -0.0001 -0.6736 0.7390
vn 0.5981 -0.6735 0.4343
vn 0.2280 -0.6735 0.7031
vn 0.4343 -0.6735 0.5981
vn 0.2256 0.6738 -0.7036
vn 0.5954 0.6736 0.4379
vn 0.7024 0.6731 0.2313
vn 0.7395 0.6731 0.0000
vn 0.7024 0.6731 -0.2313
vn 0.5954 0.6736 -0.4379
vn 0.4312 0.6735 -0.6003
vn -0.7395 0.6731 0.0000
vn -0.7024 0.6732 0.2309
vn -0.7024 0.6732 -0.2309
vn -0.5956 0.6734 -0.4379
vn -0.5956 0.6734 0.4379
vn -0.4309 0.6737 -0.6004
vn -0.2256 0.6738 -0.7036
vn -0.4309 0.6737 0.6004
vn -0.2256 0.6738 0.7036
vn 0.0000 0.6740 -0.7387
vn 0.5382 0.7440 0.3959
vn 0.6340 0.7446 0.2088
vn 0.6676 0.7445 0.0000
vn 0.6340 0.7446 -0.2088
vn 0.5382 0.7440 -0.3959
vn 0.3898 0.7440 -0.5426
vn 0.2041 0.7437 -0.6365
vn -0.6343 0.7444 0.2085
vn 0.0000 0.7434 -0.6688
vn -0.2041 0.7437 -0.6365
vn -0.3896 0.7439 -0.5430
vn -0.5380 0.7443 -0.3956
vn 0.5981 0.6735 -0.4343
vn 0.4348 0.6737 -0.5976
vn 0.4343 0.6735 0.5981
vn -0.2287 0.6733 -0.7030
vn -0.0001 0.6736 0.7390
vn -0.0001 0.6736 -0.7390
vn 0.2286 0.6733 -0.7031
vn -0.4348 0.6737 -0.5976
vn -0.5976 0.6737 -0.4348
vn -0.7030 0.6733 -0.2287
vn -0.7390 0.6736 -0.0001
vn 0.7031 0.6735 -0.2281
vn 0.7390 0.6736 -0.0001
vn 0.2280 0.6735 0.7031
vn 0.5981 0.6735 0.4343
vn 0.7031 0.6735 0.2280
vn -0.7031 0.6733 0.2286
vn -0.5976 0.6737 0.4348
vn -0.4343 0.6735 0.5981
vn -0.2281 0.6735 0.7031
vn 0.3015 -0.9045 0.3015
vn 0.5773 0.5773 -0.5773
vn 0.5773 0.5773 0.5773
vn 0.4312 0.6735 0.6003
vn 0.0000 0.6740 0.7387
vn 0.2256 0.6738 0.7036
vn 0.2041 0.7437 0.6365
vn 0.3898 0.7440 0.5426
vn -0.3896 0.7439 0.5429
vn -0.2041 0.7437 0.6365
vn 0.0000 0.7434 0.6688
usemtl color_30377
s 1
f 1//1 2//2 3//3
f 1//1 3//3 4//4
f 5//5 6//6 7//7
f 8//8 6//6 5//5
f 9//9 6//6 8//8
f 10//10 6//6 9//9
f 11//11 7//7 6//6
f 11//11 6//6 12//12
f 11//11 12//12 13//13
f 11//11 13//13 14//14
f 11//11 14//14 15//15
f 16//16 6//6 10//10
f 16//16 10//10 17//17
f 16//16 17//17 18//18
f 16//16 18//18 19//19
f 16//16 19//19 20//20
f 16//16 20//20 21//21
f 16//16 21//21 22//22
f 16//16 22//22 23//23
f 16//16 23//23 24//24
f 25//25 26//26 12//12
f 25//25 12//12 6//6
f 26//26 27//27 13//13
f 26//26 13//13 12//12
f 27//27 28//28 14//14
f 27//27 14//14 13//13
f 28//28 29//29 15//15
f 28//28 15//15 14//14
f 29//29 30//30 11//11
f 29//29 11//11 15//15
f 30//30 31//31 7//7
f 30//30 7//7 11//11
f 31//31 32//32 5//5
f 31//31 5//5 7//7
f 32//32 33//33 8//8
f 32//32 8//8 5//5
f 33//33 34//34 9//9
f 33//33 9//9 8//8
f 34//34 35//35 10//10
f 34//34 10//10 9//9
f 10//10 35//35 36//36
f 10//10 36//36 17//17
f 36//36 37//37 18//18
f 36//36 18//18 17//17
f 37//37 38//38 19//19
f 37//37 19//19 18//18
f 38//38 39//39 20//20
f 38//38 20//20 19//19
f 39//39 40//40 21//21
f 39//39 21//21 20//20
f 21//21 40//40 41//41
f 21//21 41//41 22//22
f 41//41 42//42 23//23
f 41//41 23//23 22//22
f 42//42 43//43 24//24
f 42//42 24//24 23//23
f 43//43 44//44 16//16
f 43//43 16//16 24//24
f 44//44 25//25 6//6
f 44//44 6//6 16//16
f 25//25 45//45 26//26
f 26//26 46//46 27//27
f 27//27 47//47 28//28
f 42//42 48//48 43//43
f 39//39 4//4 40//40
f 48//48 40//40 4//4
f 49//49 50//2 51//50
f 44//44 43//43 48//48
f 48//48 52//51 44//44
f 53//52 3//3 49//49
f 54//53 50//2 49//49
f 2//2 55//54 51//50
f 56//55 57//56 58//57
f 58//57 57//56 59//58
f 58//57 59//58 60//59
f 58//57 60//59 61//60
f 58//57 61//60 62//61
f 58//57 62//61 63//62
f 58//57 63//62 64//63
f 58//57 64//63 65//64
f 58//57 65//64 66//65
f 58//57 66//65 67//66
f 68//67 67//66 69//68
f 70//69 69//68 67//66
f 71//70 67//66 68//67
f 58//57 67//66 71//70
f 72//71 70//69 67//66
f 73//72 74//73 67//66
f 75//74 74//73 73//72
f 72//71 67//66 74//73
f 76//75 77//76 78//77
f 76//75 78//77 79//78
f 76//75 79//78 80//79
f 76//75 80//79 81//80
f 76//75 81//80 82//81
f 83//82 84//83 85//84
f 86//85 85//84 84//83
f 84//83 87//86 86//85
f 88//87 86//85 87//86
f 89//88 88//87 90//89
f 90//89 91//90 89//88
f 92//91 89//88 91//90
f 93//92 94//93 78//77
f 93//92 78//77 77//76
f 94//93 95//94 79//78
f 94//93 79//78 78//77
f 95//94 96//95 80//79
f 95//94 80//79 79//78
f 96//95 97//96 81//80
f 96//95 81//80 80//79
f 97//96 98//97 82//81
f 97//96 82//81 81//80
f 98//97 99//98 76//75
f 98//97 76//75 82//81
f 100//99 52//51 87//86
f 100//99 87//86 84//83
f 99//98 101//100 92//91
f 99//98 92//91 76//75
f 101//100 102//101 89//88
f 101//100 89//88 92//91
f 102//101 103//102 88//87
f 102//101 88//87 89//88
f 103//102 104//103 86//85
f 103//102 86//85 88//87
f 104//103 46//46 85//84
f 104//103 85//84 86//85
f 46//46 45//45 85//84
f 87//86 90//89 88//87
f 100//99 84//83 45//45
f 83//82 45//45 84//83
f 85//84 45//45 83//82
f 46//46 26//26 45//45
f 47//47 27//27 46//46
f 105//104 106//105 107//106
f 108//107 109//108 110//109
f 106//105 111//110 107//106
f 110//109 107//106 111//110
f 108//107 112//111 113//112
f 108//107 113//112 114//113
f 115//114 108//107 114//113
f 116//115 107//106 117//116
f 118//117 110//109 109//108
f 107//106 110//109 118//117
f 116//115 105//104 107//106
f 119//118 120//119 107//106
f 117//116 107//106 120//119
f 108//107 115//114 121//120
f 108//107 121//120 122//121
f 108//107 122//121 123//122
f 108//107 123//122 124//123
f 108//107 124//123 109//108
f 65//64 105//104 116//115
f 65//64 116//115 117//116
f 70//69 124//123 69//68
f 70//69 72//71 124//123
f 111//110 61//60 110//109
f 110//109 61//60 108//107
f 112//111 108//107 59//58
f 59//58 113//112 112//111
f 113//112 56//55 114//113
f 56//55 115//114 114//113
f 113//112 59//58 57//56
f 109//108 74//73 118//117
f 107//106 118//117 74//73
f 109//108 72//71 74//73
f 73//72 119//118 107//106
f 107//106 74//73 75//74
f 120//119 119//118 73//72
f 75//74 73//72 107//106
f 120//119 73//72 67//66
f 121//120 71//70 122//121
f 68//67 122//121 71//70
f 121//120 115//114 71//70
f 68//67 69//68 123//122
f 68//67 123//122 122//121
f 124//123 123//122 69//68
f 109//108 124//123 72//71
f 66//65 117//116 67//66
f 120//119 67//66 117//116
f 29//29 28//28 47//47
f 30//30 29//29 47//47
f 117//116 66//65 65//64
f 47//47 1//1 30//30
f 64//63 105//104 65//64
f 31//31 30//30 1//1
f 64//63 63//62 105//104
f 106//105 105//104 63//62
f 111//110 106//105 62//61
f 63//62 62//61 106//105
f 62//61 61//60 111//110
f 36//36 4//4 37//37
f 39//39 38//38 4//4
f 37//37 4//4 38//38
f 61//60 60//59 108//107
f 60//59 59//58 108//107
f 40//40 48//48 41//41
f 48//48 42//42 41//41
f 113//112 57//56 56//55
f 1//1 4//4 35//35
f 35//35 34//34 1//1
f 115//114 56//55 58//57
f 32//32 31//31 1//1
f 58//57 71//70 115//114
f 32//32 1//1 33//33
f 33//33 1//1 34//34
f 35//35 4//4 36//36
f 125//124 2//2 51//50
f 54//53 3//3 125//124
f 3//3 2//2 125//124
f 126//125 101//100 99//98
f 126//125 99//98 98//97
f 93//92 127//126 94//93
f 95//94 94//93 127//126
f 47//47 2//2 1//1
f 95//94 126//125 96//95
f 51//50 128//52 125//124
f 96//95 126//125 97//96
f 129//54 50//2 54//53
f 125//124 128//52 129//54
f 125//124 129//54 54//53
f 55//54 127//126 53//52
f 126//125 127//126 55//54
f 77//76 76//75 130//127
f 126//125 47//47 101//100
f 102//101 101//100 47//47
f 131//128 132//129 76//75
f 91//90 131//128 92//91
f 76//75 92//91 131//128
f 130//127 76//75 132//129
f 133//130 134//131 130//127
f 133//130 130//127 132//129
f 104//103 47//47 46//46
f 134//131 93//92 77//76
f 134//131 77//76 130//127
f 98//97 97//96 126//125
f 135//132 90//89 87//86
f 135//132 87//86 52//51
f 136//133 91//90 90//89
f 136//133 90//89 135//132
f 137//134 131//128 91//90
f 137//134 91//90 136//133
f 132//129 131//128 137//134
f 132//129 137//134 133//130
f 100//99 45//45 44//44
f 51//50 50//2 138//3
f 133//130 137//134 127//126
f 136//133 48//48 137//134
f 103//102 102//101 47//47
f 103//102 47//47 104//103
f 44//44 45//45 25//25
f 134//131 133//130 127//126
f 126//125 55//54 47//47
f 55//54 2//2 47//47
f 134//131 127//126 93//92
f 128//52 51//50 138//3
f 128//52 138//3 50//2
f 136//133 135//132 48//48
f 135//132 52//51 48//48
f 50//2 129//54 128//52
f 100//99 44//44 52//51
f 48//48 127//126 137//134
f 126//125 95//94 127//126
f 54//53 49//49 3//3
f 55//54 53//52 51//50
f 49//49 51//50 53//52
f 53//52 48//48 3//3
f 4//4 3//3 48//48
f 48//48 53//52 127//126
o Cube
v 1.000000 -1.000000 -1.000000
v 1.000000 -1.000000 1.000000
v -1.000000 -1.000000 1.000000
v -1.000000 -1.000000 -1.000000
v 1.000000 1.000000 -0.999999
v 0.999999 1.000000 1.000001
v -1.000000 1.000000 1.000000
v -1.000000 1.000000 -1.000000
vn 0.0000 -1.0000 0.0000
vn 0.0000 1.0000 0.0000
vn 1.0000 -0.0000 0.0000
vn 0.0000 -0.0000 1.0000
vn -1.0000 -0.0000 -0.0000
vn 0.0000 0.0000 -1.0000
usemtl Material
s off
f 140//135 142//135 139//135
f 146//136 144//136 143//136
f 143//137 140//137 139//137
f 144//138 141//138 140//138
f 141//139 146//139 142//139
f 139//140 146//140 143//140
f 140//135 141//135 142//135
f 146//136 145//136 144//136
f 143//137 144//137 140//137
f 144//138 145//138 141//138
f 141//139 145//139 146//139
f 139//140 142//140 146//140
