
v -7.887440 9.614902 -7.884774
v -7.895120 0.014915 -7.898871
v -7.884881 -0.008294 7.901108
v -7.877201 9.591692 7.915205
v 4.023185 11.287379 6.413981
v 4.021825 9.587381 6.411485
v 4.763749 9.586961 6.294003
v 4.765109 11.286959 6.296500
v -1.702430 9.606137 -3.242790
v -6.384909 9.610969 -3.981749
v -1.584911 9.607133 -3.984866
v 5.432528 9.586927 5.952569
v 5.433888 11.286925 5.955066
v 0.746992 8.102767 -2.283585
v 1.417213 8.101731 -1.943020
v 1.015470 8.103736 -3.089758
v -0.998996 -0.003741 3.091646
v -0.992516 8.096249 3.103540
v -1.906296 -0.002336 2.629236
v -2.572652 9.605071 -2.042226
v -2.041997 9.605427 -2.573570
v -3.241431 9.605104 -1.700792
v -6.398844 -0.007303 6.416144
v -6.407142 0.011507 -6.388839
v 5.963183 9.587283 5.421225
v 5.964543 11.287281 5.423721
v 0.007106 -0.004778 3.249992
v 6.302750 9.587994 4.752006
v 6.304110 11.287992 4.754502
v 6.420269 9.588989 4.009930
v 2.604188 11.306637 -5.927087
v 6.297963 11.301923 -4.729486
v 3.272966 11.306603 -6.268521
v 2.073532 11.306281 -5.395742
v 1.732966 11.305571 -4.726522
v 4.014890 11.306182 -6.386002
v 5.957530 11.303178 -5.398264
v 5.426186 11.304381 -5.928919
v 4.756966 11.305417 -6.269484
v -1.903229 8.105389 -2.624863
v -0.737007 8.103953 -2.282621
v -0.996529 8.105344 -3.088452
v 0.009367 8.104774 -3.248105
v 0.004916 8.103534 -2.401103
v 1.616447 11.304574 -3.984447
v 1.733927 11.303391 -3.242524
v 6.416444 11.300739 -3.987563
v 2.075361 11.302135 -2.573746
v 2.606705 11.300931 -2.043092
v 3.275925 11.299896 -1.702526
v 4.018001 11.299131 -1.586008
v 4.759924 11.298710 -1.703490
v 6.298925 11.299744 -3.245487
v 5.428703 11.298676 -2.044924
v 5.959359 11.299032 -2.576268
v -2.279006 8.102920 -0.738621
v -1.938441 8.103631 -1.408842
v -2.622761 8.104906 -1.904397
v 6.397851 0.001276 -6.397152
v 6.296603 9.601925 -4.731982
v 5.956170 9.603180 -5.400760
v 5.424826 9.604383 -5.931415
v 1.922769 8.102331 -2.627347
v 2.643236 8.100698 -1.907816
v 2.636756 0.000710 -1.919710
v 1.943077 0.000536 -1.423260
v 2.284512 -0.000721 -0.753482
v 4.755606 9.605419 -6.271980
v -3.083870 8.100988 1.014900
v -2.278044 8.100739 0.745377
v -3.243522 8.102593 0.009004
v -3.085174 8.103944 -0.997098
v -2.395525 8.101923 0.003454
v -6.400658 8.117496 -6.376936
v -6.392359 8.098685 6.428047
v 1.916289 0.002343 -2.639242
v 4.013530 9.606184 -6.388498
v 3.100343 -0.000993 -1.013012
v 3.259995 -0.002598 -0.007117
v 2.402992 -0.001905 -0.011560
v 3.271606 9.606606 -6.271017
v 0.002887 0.004785 -3.259999
v 2.602828 9.606639 -5.929583
v 2.285473 -0.002901 0.730516
v -1.003009 0.005355 -3.100346
v -1.936610 8.099483 1.415154
v 2.072172 9.606283 -5.398239
v 1.731606 9.605573 -4.729018
v 7.904871 0.002290 -7.909129
v -5.922639 9.600924 2.606945
v -1.579727 9.595382 4.015124
v -6.263205 9.600214 3.276165
v -5.391984 9.601279 2.075601
v -4.723205 9.601246 1.734167
v -3.981281 9.600825 1.616685
v -6.262243 9.598034 4.760163
v -6.379725 9.599217 4.018240
v 7.915110 -0.020919 7.890850
v 6.406149 -0.017534 6.407831
v 1.615087 9.604576 -3.986943
v 1.732568 9.603393 -3.245020
v -3.239206 9.600060 1.733203
v -1.698208 9.596566 3.273201
v 2.074001 9.602138 -2.576242
v 6.412634 8.088454 6.419734
v -2.038641 9.597820 2.604423
v -2.569985 9.599025 2.073769
v 2.605345 9.600933 -2.045588
v 1.413253 -0.003969 1.933081
v 1.944908 -0.003613 1.400736
v 2.639235 -0.004911 1.906285
v 3.101647 -0.003948 0.998985
v 0.008030 8.096476 2.403891
v 0.013586 8.095211 3.261887
v 0.749954 8.096054 2.286409
v 3.274565 9.599898 -1.705023
v -5.389466 9.595574 5.959596
v -4.720246 9.594539 6.300161
v -5.920810 9.596779 5.428941
v -3.978170 9.593774 6.416679
v 4.016641 9.599133 -1.588504
v 1.926182 8.094596 2.638646
v 1.419732 8.096020 1.944975
v 1.019482 8.094641 3.102234
v -0.734045 8.097240 2.287373
v -1.404266 8.098276 1.946808
v -1.899816 8.097653 2.641130
v -2.620282 8.099286 1.921598
v 7.922790 9.579067 7.904946
v 7.912551 9.602277 -7.895032
v -2.036812 9.593675 5.426419
v -2.567468 9.593319 5.957763
v -1.697246 9.594386 4.757200
v -3.236247 9.593353 6.299197
v 4.758564 9.598712 -1.705986
v 1.949557 8.100525 -1.411366
v 2.290992 8.099268 -0.741588
v 5.427343 9.598679 -2.047420
v 2.409472 8.098083 0.000334
v 5.957999 9.599034 -2.578764
v -5.390624 11.301277 2.078097
v -1.695886 11.294384 4.759696
v -4.721845 11.301244 1.736663
v -5.921279 11.300921 2.609441
v -6.261845 11.300212 3.278661
v -6.378365 11.299215 4.020736
v -3.979921 11.300823 1.619181
v -1.578367 11.295380 4.017620
v -1.696848 11.296564 3.275698
v -2.037281 11.297818 2.606920
v -2.568625 11.299023 2.076265
v -3.237846 11.300058 1.735700
v -2.402005 0.001934 -0.008441
v -2.284524 0.000751 0.733483
v -3.250002 0.002604 -0.002890
v 6.297565 9.599746 -3.247984
v 0.740512 0.002778 -2.295479
v 6.415084 9.600741 -3.990060
v -1.413266 0.003999 -1.953081
v -1.944921 0.003642 -1.420736
v -1.909708 0.005400 -2.636758
v 3.106823 8.098996 -1.001118
v -6.260883 11.298032 4.762660
v -5.919450 11.296777 5.431437
v -5.388106 11.295572 5.962092
v -4.718886 11.294537 6.302657
v -3.976810 11.293772 6.419175
v -3.234887 11.293351 6.301693
v -2.566108 11.293317 5.960259
v -2.035452 11.293673 5.428915
v 3.266475 8.097391 0.004778
v -0.743487 0.003964 -2.294515
v -5.395808 11.313029 -5.921893
v -1.702032 11.308315 -4.724292
v -4.727029 11.312995 -6.263327
v -5.926464 11.312674 -5.390548
v -6.267030 11.311963 -4.721328
v -3.985106 11.312574 -6.380808
v -2.042466 11.309569 -5.393070
v -2.573809 11.310774 -5.923725
v -3.243030 11.311810 -6.264290
v -3.091654 0.003955 -1.008992
v -2.285486 0.002930 -0.750515
v -2.629241 0.004917 -1.916291
v 0.001550 -0.003514 2.391997
v -0.740525 -0.002749 2.275479
v 2.291953 8.097088 0.742410
v -6.383549 11.310966 -3.979253
v -6.266068 11.309783 -3.237330
v -1.583552 11.307131 -3.982369
v -5.924635 11.308528 -2.568552
v -5.393291 11.307323 -2.037898
v -4.724071 11.306288 -1.697333
v -3.981995 11.305523 -1.580814
v -3.240071 11.305102 -1.698296
v -1.701071 11.306135 -3.240294
v -2.571292 11.305069 -2.039730
v -2.040637 11.305425 -2.571074
v 1.951387 8.096376 1.412630
v 3.108127 8.096041 1.010880
v -1.410746 -0.001713 1.934914
v -1.943090 -0.000506 1.403260
v -2.626762 -0.000703 1.909704
v -1.703392 9.608317 -4.726788
v -2.043826 9.609571 -5.395566
v 1.410733 0.001742 -1.954914
v -3.090350 0.000999 1.003006
v -2.575169 9.610776 -5.926221
v 1.008990 0.003747 -3.101652
v -3.244390 9.611812 -6.266787
v -3.986465 9.612576 -6.383304
v 1.919702 -0.005393 2.626751
v -4.728389 9.612997 -6.265823
v 0.743474 -0.003935 2.274515
v 1.013003 -0.005348 3.090340
v -5.397168 9.613031 -5.924389
v 2.645715 8.095078 1.918179
v -0.001564 0.003545 -2.412997
v -5.927824 9.612676 -5.393044
v -6.268390 9.611965 -4.723825
v -6.267428 9.609785 -3.239826
v -5.925995 9.608530 -2.571049
v -5.394651 9.607326 -2.040394
v -4.725430 9.606290 -1.699829
v -3.983355 9.605525 -1.583311
v 6.404335 8.107264 -6.385250
v -1.406786 8.103988 -1.941187
v 1.620271 9.592825 4.013046
v 6.301788 9.590174 3.268007
v 1.736790 9.593822 3.270971
v 2.077357 9.594532 2.601751
v 5.430011 9.592632 2.068575
v 4.760790 9.593668 1.728009
v 4.018715 9.594433 1.611491
v 5.961355 9.591428 2.599229
v 2.608012 9.594888 2.070407
v 3.276791 9.594853 1.728973
v 3.279750 9.588146 6.294967
v 2.610529 9.589182 5.954401
v 2.079185 9.590386 5.423747
v 1.737752 9.591641 4.754970
v 2.609372 11.294886 2.072903
v 3.278151 11.294851 1.731469
v 2.078717 11.294530 2.604247
v 1.738150 11.293819 3.273468
v 1.621631 11.292823 4.015543
v 1.739112 11.291639 4.757466
v 4.020075 11.294431 1.613988
v 6.421628 11.288987 4.012426
v 6.303148 11.290172 3.270504
v 5.962715 11.291426 2.601726
v 5.431371 11.292630 2.071071
v 4.762150 11.293666 1.730506
v 2.080545 11.290384 5.426243
v 2.611889 11.289180 5.956898
v 3.281110 11.288144 6.297463
vn -0.5773 0.5786 -0.5761
vn -0.5782 -0.5760 -0.5778
vn -0.5774 -0.5777 0.5769
vn -0.5765 0.5770 0.5786
vn 0.0010 0.6726 0.7400
vn -0.0000 -0.6747 0.7380
vn 0.2282 -0.6746 0.7020
vn 0.2292 0.6722 0.7039
vn 0.7025 -0.6746 0.2268
vn -0.7396 -0.6731 -0.0005
vn 0.7387 -0.6740 -0.0015
vn 0.4343 -0.6748 0.5967
vn 0.4354 0.6723 0.5987
vn -0.2055 0.7432 0.6367
vn -0.3916 0.7436 0.5419
vn 0.2287 0.6742 -0.7022
vn -0.2287 -0.6742 0.7022
vn -0.2276 0.6726 0.7042
vn -0.4348 -0.6741 0.5970
vn 0.5980 -0.6745 0.4328
vn 0.3006 -0.9043 -0.3030
vn 0.3010 -0.9052 0.3000
vn 0.5991 0.6723 0.4348
vn -0.0000 -0.6747 0.7381
vn 0.7035 0.6728 0.2287
vn -0.4343 0.6748 -0.5967
vn 0.7033 0.6735 -0.2277
vn -0.2282 0.6746 -0.7020
vn -0.5977 0.6746 -0.4331
vn -0.7027 0.6743 -0.2268
vn 0.0000 0.6747 -0.7380
vn 0.5985 0.6736 -0.4336
vn 0.4346 0.6741 -0.5972
vn 0.2283 0.6743 -0.7023
vn -0.4345 0.6748 -0.5965
vn 0.2076 0.7428 0.6365
vn -0.2285 0.6746 -0.7019
vn 0.0000 0.6747 -0.7381
vn 0.0010 0.7432 0.6690
vn -0.7385 0.6742 0.0015
vn -0.7024 0.6737 0.2297
vn 0.7398 0.6728 0.0005
vn -0.5971 0.6734 0.4359
vn -0.4335 0.6730 0.5992
vn -0.2272 0.6726 0.7042
vn 0.6362 0.7433 0.2067
vn 0.5414 0.7431 0.3933
vn -0.5975 0.6747 -0.4333
vn -0.3020 -0.9047 0.3004
vn 0.7022 -0.6739 -0.2297
vn 0.5975 -0.6732 -0.4356
vn 0.4335 -0.6730 -0.5992
vn 0.4348 0.6741 -0.5970
vn 0.5980 0.6738 -0.4340
vn 0.5969 -0.6734 -0.4360
vn -0.5409 -0.7443 0.3918
vn -0.6360 -0.7437 0.2058
vn 0.2272 -0.6726 -0.7042
vn -0.7023 0.6736 0.2300
vn 0.6359 0.7439 -0.2054
vn -0.7026 0.6743 -0.2271
vn 0.6689 0.7433 0.0006
vn 0.5773 -0.5786 0.5761
vn 0.5765 -0.5770 -0.5786
vn 0.4337 -0.6731 -0.5990
vn -0.0010 -0.6726 -0.7400
vn 0.7023 -0.6736 -0.2300
vn 0.7385 -0.6742 -0.0015
vn -0.6685 -0.7437 -0.0006
vn -0.2292 -0.6722 -0.7039
vn -0.0010 -0.6725 -0.7401
vn -0.4354 -0.6723 -0.5987
vn -0.6362 -0.7431 -0.2072
vn -0.2296 -0.6722 -0.7038
vn 0.5409 0.7443 -0.3918
vn -0.5987 -0.6724 -0.4351
vn -0.7038 -0.6725 -0.2288
vn -0.7035 -0.6732 0.2277
vn -0.3024 -0.9038 -0.3026
vn -0.5982 -0.6737 0.4339
vn -0.4346 -0.6741 0.5972
vn -0.3935 -0.7430 -0.5414
vn -0.5414 -0.7431 -0.3933
vn 0.5975 -0.6747 0.4333
vn 0.7026 -0.6743 0.2271
vn 0.0002 0.7449 -0.6672
vn 0.0010 0.6725 0.7401
vn -0.2059 0.7452 -0.6342
vn -0.2283 -0.6743 0.7023
vn 0.4356 0.6724 0.5985
vn -0.3923 0.7452 -0.5392
vn 0.2296 0.6722 0.7038
vn 0.2062 0.7449 -0.6345
vn 0.3928 0.7446 -0.5397
vn -0.4337 0.6731 0.5990
vn -0.5969 0.6734 0.4360
vn 0.5782 0.5760 0.5778
vn 0.5774 0.5777 -0.5769
vn -0.5397 0.7440 0.3940
vn -0.6348 0.7441 0.2080
vn -0.6673 0.7447 0.0015
vn 0.6677 -0.7444 -0.0015
vn 0.6348 -0.7443 -0.2076
vn -0.7396 -0.6730 -0.0005
vn -0.2067 -0.7447 0.6345
vn 0.3923 -0.7452 0.5392
vn 0.5402 -0.7451 0.3911
vn -0.4356 -0.6724 -0.5985
vn 0.7034 0.6732 -0.2280
vn 0.7396 0.6730 0.0005
vn 0.2064 -0.7450 0.6343
vn -0.7037 -0.6725 -0.2291
vn 0.6350 -0.7449 0.2046
vn -0.5986 -0.6725 -0.4352
vn -0.0010 -0.7429 -0.6694
vn 0.2051 -0.7433 -0.6367
vn -0.6351 0.7447 -0.2050
vn 0.4354 0.6723 0.5986
vn -0.5402 0.7451 -0.3911
vn 0.7037 0.6725 0.2291
vn 0.3916 -0.7436 -0.5419
vn 0.5397 -0.7440 -0.3940
vn -0.5980 -0.6738 0.4340
vn -0.3928 -0.7446 0.5397
vn -0.7034 -0.6732 0.2280
vn 0.2276 -0.6726 -0.7042
vn 0.4345 -0.6748 0.5965
vn -0.2071 -0.7430 -0.6364
vn 0.2285 -0.6746 0.7019
vn 0.5986 0.6725 0.4352
vn -0.0002 -0.7452 0.6668
vn 0.3935 0.7430 0.5414
usemtl color_30377
s 1
f 1//1 2//2 3//3
f 1//1 3//3 4//4
f 5//5 6//6 7//7
f 5//5 7//7 8//8
f 9//9 10//10 11//11
f 7//7 12//12 13//13
f 7//7 13//13 8//8
f 14//14 15//15 16//16
f 17//17 18//18 19//19
f 20//12 10//10 21//20
f 22//7 10//10 20//12
f 23//21 3//3 24//22
f 3//3 2//2 24//22
f 12//12 25//20 26//23
f 12//12 26//23 13//13
f 27//24 18//18 17//17
f 25//20 28//9 29//25
f 25//20 29//25 26//23
f 29//25 28//9 30//11
f 31//26 32//27 33//28
f 34//29 32//27 31//26
f 35//30 32//27 34//29
f 36//31 33//28 32//27
f 36//31 32//27 37//32
f 36//31 37//32 38//33
f 36//31 38//33 39//34
f 40//35 41//36 42//37
f 43//38 42//37 44//39
f 44//39 14//14 43//38
f 43//38 14//14 16//16
f 35//30 45//40 32//27
f 46//41 47//42 45//40
f 32//27 45//40 47//42
f 47//42 46//41 48//43
f 47//42 48//43 49//44
f 47//42 49//44 50//45
f 47//42 50//45 51//5
f 52//8 53//25 51//5
f 54//13 53//25 52//8
f 55//23 53//25 54//13
f 47//42 51//5 53//25
f 56//46 57//47 58//48
f 59//49 24//22 2//2
f 60//50 61//51 37//32
f 60//50 37//32 32//27
f 61//51 62//52 38//33
f 61//51 38//33 37//32
f 63//53 64//54 65//55
f 66//56 65//55 67//57
f 62//52 68//58 39//34
f 62//52 39//34 38//33
f 69//59 70//60 71//40
f 56//46 72//61 73//62
f 58//48 72//61 56//46
f 71//40 73//62 72//61
f 24//22 74//63 75//64
f 24//22 75//64 23//21
f 65//55 76//65 63//53
f 68//58 77//66 36//31
f 68//58 36//31 39//34
f 78//67 79//68 80//69
f 80//69 67//57 78//67
f 76//65 16//16 63//53
f 77//66 81//70 33//28
f 77//66 33//28 36//31
f 16//16 82//71 43//38
f 83//72 31//26 81//70
f 81//70 31//26 33//28
f 80//69 79//68 84//73
f 43//38 82//71 85//74
f 43//38 85//74 42//37
f 70//60 69//59 86//75
f 83//72 87//76 34//29
f 83//72 34//29 31//26
f 87//76 88//77 35//30
f 87//76 35//30 34//29
f 85//74 40//35 42//37
f 2//2 89//64 59//49
f 90//76 91//11 92//77
f 93//72 91//11 90//76
f 94//70 91//11 93//72
f 95//66 91//11 94//70
f 96//78 97//10 91//11
f 97//10 92//77 91//11
f 73//62 71//40 70//60
f 89//64 98//63 59//49
f 3//3 23//21 99//79
f 45//40 100//10 101//78
f 45//40 101//78 46//41
f 95//66 102//58 103//50
f 95//66 103//50 91//11
f 3//3 98//63 4//4
f 101//78 104//80 48//43
f 101//78 48//43 46//41
f 105//2 99//79 75//64
f 23//21 75//64 99//79
f 106//51 103//50 107//52
f 102//58 107//52 103//50
f 104//80 108//81 49//44
f 104//80 49//44 48//43
f 109//82 110//83 111//84
f 79//68 112//85 84//73
f 84//73 112//85 110//83
f 111//84 110//83 112//85
f 113//86 114//87 115//88
f 116//89 50//45 108//81
f 108//81 50//45 49//44
f 117//81 91//11 118//89
f 119//80 91//11 117//81
f 96//78 91//11 119//80
f 120//6 118//89 91//11
f 116//89 121//6 51//5
f 116//89 51//5 50//45
f 74//63 105//2 75//64
f 122//90 123//91 124//92
f 114//87 124//92 115//88
f 18//18 114//87 113//86
f 18//18 113//86 125//93
f 126//94 127//95 125//93
f 86//75 128//96 126//94
f 127//95 126//94 128//96
f 18//18 125//93 127//95
f 4//4 129//97 130//98
f 131//20 132//12 133//9
f 132//12 134//7 133//9
f 134//7 120//6 133//9
f 91//11 133//9 120//6
f 51//5 121//6 135//7
f 51//5 135//7 52//8
f 136//99 66//56 67//57
f 136//99 67//57 137//100
f 128//96 86//75 69//59
f 135//7 138//12 54//13
f 135//7 54//13 52//8
f 80//69 139//101 67//57
f 137//100 67//57 139//101
f 138//12 140//20 55//23
f 138//12 55//23 54//13
f 141//26 142//25 143//28
f 144//29 142//25 141//26
f 145//30 142//25 144//29
f 146//40 142//25 145//30
f 147//31 143//28 142//25
f 147//31 142//25 148//42
f 147//31 148//42 149//27
f 147//31 149//27 150//32
f 147//31 150//32 151//33
f 147//31 151//33 152//34
f 153//102 154//103 155//104
f 140//20 156//9 53//25
f 140//20 53//25 55//23
f 157//105 14//14 44//39
f 156//9 158//11 47//42
f 156//9 47//42 53//25
f 15//15 136//99 63//53
f 15//15 14//14 157//105
f 159//106 160//107 161//108
f 32//27 47//42 158//11
f 32//27 158//11 60//50
f 162//109 64//54 137//100
f 142//25 146//40 163//41
f 142//25 163//41 164//43
f 142//25 164//43 165//44
f 142//25 165//44 166//45
f 142//25 166//45 167//5
f 142//25 167//5 168//8
f 142//25 168//8 169//13
f 142//25 169//13 170//23
f 171//110 162//109 139//101
f 88//77 100//10 45//40
f 88//77 45//40 35//30
f 172//111 159//106 161//108
f 173//26 174//27 175//28
f 176//29 174//27 173//26
f 177//30 174//27 176//29
f 178//31 175//28 174//27
f 178//31 174//27 179//32
f 178//31 179//32 180//33
f 178//31 180//33 181//34
f 66//56 136//99 15//15
f 146//40 97//10 96//78
f 155//104 182//112 153//102
f 183//113 153//102 182//112
f 182//112 184//114 183//113
f 160//107 183//113 184//114
f 114//87 27//24 124//92
f 63//53 136//99 64//54
f 136//99 137//100 64//54
f 137//100 139//101 162//109
f 91//11 148//42 142//25
f 64//54 78//67 65//55
f 27//24 17//17 185//115
f 17//17 19//19 186//116
f 91//11 103//50 149//27
f 91//11 149//27 148//42
f 139//101 187//117 171//110
f 177//30 188//40 174//27
f 189//41 190//42 188//40
f 174//27 188//40 190//42
f 190//42 189//41 191//43
f 190//42 191//43 192//44
f 190//42 192//44 193//45
f 190//42 193//45 194//5
f 195//8 196//25 194//5
f 197//118 196//25 195//8
f 198//23 196//25 197//118
f 190//42 194//5 196//25
f 150//32 149//27 106//51
f 103//50 106//51 149//27
f 199//119 200//120 187//117
f 71//40 155//104 69//59
f 201//121 186//116 19//19
f 202//122 201//121 203//123
f 106//51 107//52 151//33
f 106//51 151//33 150//32
f 204//50 205//51 179//32
f 204//50 179//32 174//27
f 206//124 76//65 66//56
f 207//125 203//123 128//96
f 207//125 128//96 69//59
f 107//52 102//58 152//34
f 107//52 152//34 151//33
f 205//51 208//52 180//33
f 205//51 180//33 179//32
f 203//123 207//125 202//122
f 154//103 202//122 207//125
f 16//16 76//65 209//126
f 208//52 210//58 181//34
f 208//52 181//34 180//33
f 76//65 65//55 66//56
f 147//31 152//34 95//66
f 102//58 95//66 152//34
f 128//96 203//123 127//95
f 211//66 178//31 210//58
f 210//58 178//31 181//34
f 115//88 124//92 123//91
f 199//119 123//91 122//90
f 209//126 82//71 16//16
f 111//84 212//127 109//82
f 95//66 94//70 143//28
f 95//66 143//28 147//31
f 211//66 213//70 175//28
f 211//66 175//28 178//31
f 19//19 127//95 203//123
f 94//70 93//72 141//26
f 94//70 141//26 143//28
f 214//128 109//82 215//129
f 215//129 109//82 212//127
f 213//70 216//72 173//26
f 213//70 173//26 175//28
f 171//110 187//117 200//120
f 122//90 217//130 199//119
f 200//120 199//119 217//130
f 18//18 127//95 19//19
f 157//105 209//126 206//124
f 218//131 172//111 85//74
f 161//108 85//74 172//111
f 85//74 82//71 218//131
f 157//105 218//131 82//71
f 82//71 209//126 157//105
f 76//65 206//124 209//126
f 93//72 90//76 144//29
f 93//72 144//29 141//26
f 216//72 219//76 176//29
f 216//72 176//29 173//26
f 40//35 85//74 161//108
f 219//76 220//77 177//30
f 219//76 177//30 176//29
f 90//76 92//77 145//30
f 90//76 145//30 144//29
f 27//24 114//87 18//18
f 78//67 67//57 65//55
f 200//120 112//85 171//110
f 79//68 171//110 112//85
f 203//123 201//121 19//19
f 186//116 185//115 17//17
f 185//115 214//128 27//24
f 27//24 214//128 215//129
f 92//77 97//10 146//40
f 92//77 146//40 145//30
f 78//67 162//109 171//110
f 78//67 171//110 79//68
f 184//114 58//48 161//108
f 185//115 186//116 125//93
f 185//115 125//93 113//86
f 161//108 160//107 184//114
f 96//78 163//41 146//40
f 188//40 10//10 221//78
f 188//40 221//78 189//41
f 64//54 162//109 78//67
f 207//125 155//104 154//103
f 129//97 89//64 130//98
f 96//78 119//80 164//43
f 96//78 164//43 163//41
f 125//93 186//116 201//121
f 125//93 201//121 126//94
f 221//78 222//80 191//43
f 221//78 191//43 189//41
f 119//80 117//81 165//44
f 119//80 165//44 164//43
f 40//35 161//108 58//48
f 222//80 223//81 192//44
f 222//80 192//44 191//43
f 126//94 201//121 86//75
f 202//122 86//75 201//121
f 117//81 118//89 166//45
f 117//81 166//45 165//44
f 154//103 70//60 86//75
f 154//103 86//75 202//122
f 223//81 224//89 193//45
f 223//81 193//45 192//44
f 182//112 72//61 184//114
f 72//61 58//48 184//114
f 118//89 120//6 167//5
f 118//89 167//5 166//45
f 154//103 153//102 70//60
f 224//89 225//6 194//5
f 224//89 194//5 193//45
f 2//2 130//98 89//64
f 199//119 109//82 123//91
f 134//7 168//8 120//6
f 167//5 120//6 168//8
f 226//3 74//63 59//49
f 159//106 227//132 57//47
f 194//5 225//6 22//7
f 194//5 22//7 195//8
f 134//7 132//12 169//13
f 134//7 169//13 168//8
f 123//91 109//82 214//128
f 123//91 214//128 115//88
f 74//63 226//3 105//2
f 22//7 20//12 197//118
f 22//7 197//118 195//8
f 132//12 131//20 170//23
f 132//12 170//23 169//13
f 185//115 113//86 214//128
f 115//88 214//128 113//86
f 227//132 159//106 41//36
f 172//111 41//36 159//106
f 99//79 105//2 59//49
f 226//3 59//49 105//2
f 20//12 21//20 198//23
f 20//12 198//23 197//118
f 131//20 133//9 142//25
f 131//20 142//25 170//23
f 71//40 72//61 155//104
f 182//112 155//104 72//61
f 21//20 9//9 196//25
f 21//20 196//25 198//23
f 207//125 69//59 155//104
f 44//39 41//36 172//111
f 44//39 172//111 218//131
f 1//1 130//98 2//2
f 142//25 133//9 91//11
f 73//62 70//60 153//102
f 89//64 129//97 98//63
f 11//11 190//42 9//9
f 9//9 190//42 196//25
f 73//62 153//102 56//46
f 183//113 56//46 153//102
f 59//49 74//63 24//22
f 44//39 218//131 157//105
f 56//46 183//113 57//47
f 160//107 57//47 183//113
f 11//11 204//50 190//42
f 174//27 190//42 204//50
f 160//107 159//106 57//47
f 99//79 98//63 3//3
f 220//77 10//10 188//40
f 220//77 188//40 177//30
f 206//124 15//15 157//105
f 1//1 4//4 130//98
f 99//79 59//49 98//63
f 27//24 215//129 124//92
f 129//97 4//4 98//63
f 15//15 206//124 66//56
f 40//35 57//47 227//132
f 41//36 40//35 227//132
f 40//35 58//48 57//47
f 68//58 62//52 77//66
f 62//52 61//51 77//66
f 61//51 60//50 77//66
f 60//50 158//11 77//66
f 44//39 42//37 41//36
f 83//72 81//70 87//76
f 88//77 87//76 81//70
f 63//53 16//16 15//15
f 84//73 139//101 80//69
f 158//11 156//9 77//66
f 81//70 77//66 156//9
f 81//70 156//9 140//20
f 81//70 140//20 138//12
f 81//70 138//12 135//7
f 81//70 135//7 121//6
f 81//70 121//6 116//89
f 212//127 122//90 215//129
f 124//92 215//129 122//90
f 122//90 212//127 111//84
f 100//10 88//77 81//70
f 116//89 108//81 81//70
f 100//10 81//70 101//78
f 122//90 111//84 217//130
f 101//78 81//70 104//80
f 104//80 81//70 108//81
f 200//120 217//130 112//85
f 111//84 112//85 217//130
f 216//72 204//50 219//76
f 213//70 204//50 216//72
f 211//66 204//50 213//70
f 210//58 204//50 211//66
f 220//77 219//76 204//50
f 139//101 84//73 187//117
f 205//51 204//50 208//52
f 210//58 208//52 204//50
f 187//117 84//73 110//83
f 187//117 110//83 199//119
f 109//82 199//119 110//83
f 11//11 10//10 204//50
f 220//77 204//50 10//10
f 225//6 10//10 22//7
f 224//89 10//10 225//6
f 9//9 21//20 10//10
f 10//10 224//89 223//81
f 10//10 223//81 222//80
f 10//10 222//80 221//78
f 30//11 228//10 229//50
f 229//50 228//10 230//77
f 229//50 230//77 231//76
f 232//52 231//76 233//58
f 234//66 233//58 231//76
f 235//51 231//76 232//52
f 229//50 231//76 235//51
f 231//76 236//72 234//66
f 237//70 234//66 236//72
f 25//20 12//12 28//9
f 12//12 7//7 28//9
f 7//7 6//6 28//9
f 30//11 28//9 6//6
f 30//11 6//6 238//89
f 30//11 238//89 239//81
f 30//11 239//81 240//80
f 30//11 240//80 241//78
f 30//11 241//78 228//10
f 242//26 29//25 243//28
f 244//29 29//25 242//26
f 245//30 29//25 244//29
f 246//40 29//25 245//30
f 247//41 29//25 246//40
f 248//31 243//28 29//25
f 248//31 29//25 249//42
f 248//31 249//42 250//27
f 248//31 250//27 251//32
f 248//31 251//32 252//33
f 248//31 252//33 253//34
f 29//25 247//41 254//43
f 29//25 254//43 255//44
f 29//25 255//44 256//45
f 29//25 256//45 5//5
f 29//25 5//5 8//8
f 29//25 8//8 13//13
f 29//25 13//13 26//23
f 246//40 228//10 247//41
f 30//11 249//42 29//25
f 30//11 229//50 250//27
f 30//11 250//27 249//42
f 235//51 251//32 229//50
f 251//32 250//27 229//50
f 235//51 232//52 252//33
f 235//51 252//33 251//32
f 232//52 233//58 253//34
f 232//52 253//34 252//33
f 233//58 234//66 248//31
f 233//58 248//31 253//34
f 234//66 237//70 243//28
f 234//66 243//28 248//31
f 236//72 242//26 237//70
f 237//70 242//26 243//28
f 236//72 231//76 244//29
f 236//72 244//29 242//26
f 230//77 245//30 231//76
f 245//30 244//29 231//76
f 230//77 228//10 246//40
f 230//77 246//40 245//30
f 228//10 241//78 247//41
f 241//78 240//80 254//43
f 241//78 254//43 247//41
f 240//80 239//81 255//44
f 240//80 255//44 254//43
f 239//81 238//89 256//45
f 239//81 256//45 255//44
f 238//89 6//6 5//5
f 238//89 5//5 256//45
