
v -7.900000 3.197000 3.900001
v -7.900000 3.197001 -3.900000
v -7.900000 0.000000 -3.900000
v -7.900000 -0.000000 3.900000
v -6.420000 3.197000 0.000000
v -6.303000 3.197000 -0.742000
v 7.900000 3.197000 3.900001
v 3.950000 3.197000 2.400001
v 1.519000 3.197000 3.900001
v 3.199000 3.197000 2.283000
v 5.916000 3.197000 1.411000
v 5.379000 3.197000 1.942000
v -2.609000 3.197000 -1.942000
v -3.278000 3.197000 -2.283000
v -3.278000 4.897000 -2.283000
v -2.609000 4.897000 -1.941999
v 4.701000 3.197000 2.283000
v -6.303000 4.897000 -0.741999
v -6.420000 4.897000 0.000001
v -4.762000 3.197000 -2.283000
v -5.431000 3.197000 -1.942000
v -5.431000 4.897000 -1.941999
v -4.762000 4.897000 -2.283000
v -5.962000 3.197000 -1.411000
v -5.962000 4.897000 -1.410999
v 4.701000 3.197000 -2.283000
v 3.950000 3.197000 -2.400000
v 3.950000 4.897000 -2.400000
v 3.199000 3.197000 -2.283000
v 3.199000 4.897000 -2.283000
v 2.521000 3.197000 1.942000
v 1.983000 3.197000 1.411000
v -4.020000 3.197000 -2.400000
v 2.521000 3.197000 -1.942000
v 2.521000 4.897000 -1.941999
v 1.296000 1.697000 -0.949000
v 0.942000 1.697000 -1.303000
v 0.496000 1.697000 1.513000
v -0.493000 1.697000 -1.531000
v 0.001000 1.697000 -1.609000
v 0.496000 1.697000 -1.531000
v 1.983000 3.197000 -1.411000
v 1.983000 4.897000 -1.410999
v 1.638000 3.197000 -0.742000
v 1.638000 4.897000 -0.741999
v -6.403000 -0.000000 2.403000
v 0.000000 -0.000000 3.900000
v -1.293000 1.697000 -0.949000
v 0.001000 1.697000 1.591000
v -0.939000 1.697000 -1.303000
v -1.599000 3.197001 -3.900000
v 6.381000 3.197000 0.000000
v 6.262000 3.197000 0.742000
v -6.403000 0.000000 -2.402000
v 1.523000 1.697000 -0.503000
v 1.601000 1.697000 -0.009000
v -6.403000 1.699000 -2.402000
v -6.403000 1.699000 2.403000
v 7.900000 3.197001 -3.900000
v 5.379000 3.197000 -1.942000
v 0.000000 0.000000 -3.900000
v -6.303000 3.197000 0.742000
v -4.020000 4.897000 -2.400000
v 6.383000 1.699000 2.403000
v 6.383000 -0.000000 2.403000
v 0.000000 -0.000000 2.403000
v -2.078000 4.897000 -1.410999
v -1.738000 4.897000 -0.741999
v -1.620000 4.897000 0.000001
v 6.383000 1.699000 -2.402000
v 0.000000 0.000000 -2.402000
v 6.383000 0.000000 -2.402000
v -1.738000 4.897000 0.742001
v -4.020000 4.896999 2.400001
v -3.278000 4.896999 2.283000
v -2.609000 4.897000 1.942001
v -2.078000 4.897000 1.411001
v 7.900000 -0.000000 3.900000
v 7.900000 0.000000 -3.900000
v 6.262000 3.197000 -0.742000
v -1.738000 3.197000 -0.742000
v -1.620000 3.197000 0.000000
v -2.609000 3.197000 1.942000
v -2.078000 3.197000 1.411000
v 5.916000 3.197000 -1.411000
v -2.078000 3.197000 -1.411000
v -6.303000 4.897000 0.742001
v -5.962000 3.197000 1.411000
v -5.962000 4.897000 1.411001
v -5.431000 4.897000 1.942001
v -4.762000 4.896999 2.283000
v -4.020000 3.197000 2.400001
v -4.762000 3.197000 2.283000
v -5.431000 3.197000 1.942000
v -3.278000 3.197000 2.283000
v 5.916000 4.897000 1.411001
v 4.701000 4.897000 -2.283000
v 5.379000 4.897000 1.942001
v 4.701000 4.896999 2.283000
v 3.950000 4.896999 2.400001
v 3.199000 4.896999 2.283000
v 0.942000 1.697000 1.286000
v 1.523000 1.697000 0.486000
v 1.296000 1.697000 0.932000
v -0.493000 1.697000 1.513000
v 6.262000 4.897000 0.742001
v 6.381000 4.897000 0.000001
v 6.262000 4.897000 -0.741999
v 5.916000 4.897000 -1.410999
v 5.379000 4.897000 -1.941999
v 1.983000 4.897000 1.411001
v 2.521000 4.897000 1.942001
v -1.293000 1.697000 0.932000
v -0.939000 1.697000 1.286000
v -1.521000 1.697000 0.486000
v -1.521000 1.697000 -0.503000
v -1.599000 1.697000 -0.009000
v 1.519000 4.897000 0.000001
v 1.638000 4.897000 0.742001
v 1.519000 3.197000 0.000000
v 1.638000 3.197000 0.742000
v 1.523000 0.000000 -0.503000
v 1.601000 0.000000 -0.009000
v 1.296000 0.000000 -0.949000
v 0.942000 0.000000 -1.303000
v 0.496000 0.000000 -1.531000
v 0.001000 0.000000 -1.609000
v -0.493000 0.000000 -1.531000
v -0.939000 0.000000 -1.303000
v -1.738000 3.197000 0.742000
v -1.293000 0.000000 -0.949000
v -1.521000 0.000000 -0.503000
v -1.599000 0.000000 -0.009000
v 0.001000 -0.000000 1.591000
v 0.496000 -0.000000 1.513000
v 0.942000 -0.000000 1.286000
v 1.296000 -0.000000 0.932000
v 1.523000 -0.000000 0.486000
v -1.521000 -0.000000 0.486000
v -1.293000 -0.000000 0.932000
v -0.939000 -0.000000 1.286000
v -0.493000 -0.000000 1.513000
vn -0.5773 0.5773 0.5773
vn -0.5773 0.5773 -0.5773
vn -0.5773 -0.5773 -0.5773
vn -0.5773 -0.5773 0.5773
vn -0.6683 0.7439 0.0000
vn -0.6353 0.7442 -0.2062
vn 0.5773 0.5773 0.5773
vn 0.0000 0.7434 0.6688
vn 0.0000 0.7071 0.7071
vn -0.2041 0.7437 0.6365
vn 0.5382 0.7440 0.3959
vn 0.3898 0.7440 0.5426
vn 0.3927 0.7440 -0.5405
vn 0.2062 0.7442 -0.6353
vn 0.2282 0.6734 -0.7031
vn 0.4345 0.6735 -0.5979
vn 0.2041 0.7437 0.6365
vn -0.7031 0.6734 -0.2282
vn -0.7390 0.6737 0.0000
vn -0.2062 0.7442 -0.6353
vn -0.3927 0.7440 -0.5405
vn -0.4345 0.6735 -0.5979
vn -0.2282 0.6734 -0.7031
vn -0.5405 0.7440 -0.3927
vn -0.5979 0.6735 -0.4345
vn 0.2041 0.7437 -0.6365
vn 0.0000 0.7434 -0.6688
vn 0.0000 0.6740 -0.7387
vn -0.2041 0.7437 -0.6365
vn -0.2256 0.6738 -0.7036
vn -0.3896 0.7439 0.5429
vn -0.5380 0.7443 0.3956
vn 0.0000 0.7439 -0.6683
vn -0.3896 0.7439 -0.5429
vn -0.4309 0.6737 -0.6004
vn 0.5981 0.6735 -0.4343
vn 0.4348 0.6737 -0.5976
vn 0.2280 0.6735 0.7031
vn -0.2287 0.6733 -0.7030
vn -0.0001 0.6736 -0.7390
vn 0.2286 0.6733 -0.7031
vn -0.5380 0.7443 -0.3956
vn -0.5956 0.6734 -0.4379
vn -0.6343 0.7444 -0.2085
vn -0.7024 0.6732 -0.2309
vn 0.3015 -0.9045 -0.3015
vn 0.0000 -0.7071 0.7071
vn -0.5976 0.6737 -0.4348
vn -0.0001 0.6736 0.7390
vn -0.4348 0.6737 -0.5976
vn 0.0000 0.7071 -0.7071
vn 0.6676 0.7445 0.0000
vn 0.6340 0.7446 0.2088
vn 0.3015 -0.9045 0.3015
vn 0.7031 0.6735 -0.2281
vn 0.7390 0.6736 -0.0001
vn 0.5773 -0.5773 0.5773
vn 0.5773 -0.5773 -0.5773
vn 0.5773 0.5773 -0.5773
vn 0.3898 0.7440 -0.5426
vn 0.0000 -0.7071 -0.7071
vn -0.6353 0.7442 0.2062
vn 0.0000 0.6737 -0.7390
vn -0.3015 -0.9045 -0.3015
vn 0.5983 0.6734 -0.4342
vn 0.7029 0.6737 -0.2282
vn 0.7392 0.6734 0.0000
vn -0.3015 -0.9045 0.3015
vn 0.7029 0.6737 0.2282
vn 0.0000 0.6737 0.7390
vn 0.2282 0.6734 0.7031
vn 0.4345 0.6735 0.5979
vn 0.5983 0.6734 0.4342
vn 0.6340 0.7446 -0.2088
vn 0.6356 0.7439 -0.2064
vn 0.6679 0.7442 0.0000
vn 0.3927 0.7440 0.5405
vn 0.5406 0.7442 0.3923
vn 0.5382 0.7440 -0.3959
vn 0.5406 0.7442 -0.3923
vn -0.7031 0.6734 0.2282
vn -0.5405 0.7440 0.3927
vn -0.5979 0.6735 0.4345
vn -0.4345 0.6735 0.5979
vn -0.2282 0.6734 0.7031
vn 0.0000 0.7439 0.6683
vn -0.2062 0.7442 0.6353
vn -0.3927 0.7440 0.5405
vn 0.2062 0.7442 0.6353
vn 0.5954 0.6736 0.4379
vn 0.2256 0.6738 -0.7036
vn 0.4312 0.6735 0.6003
vn 0.2256 0.6738 0.7036
vn 0.0000 0.6740 0.7387
vn -0.2256 0.6738 0.7036
vn 0.4343 0.6735 0.5981
vn 0.7031 0.6735 0.2280
vn 0.5981 0.6735 0.4343
vn -0.2281 0.6735 0.7031
vn 0.7024 0.6731 0.2313
vn 0.7395 0.6731 0.0000
vn 0.7024 0.6731 -0.2313
vn 0.5954 0.6736 -0.4379
vn 0.4312 0.6735 -0.6003
vn -0.5956 0.6734 0.4379
vn -0.4309 0.6737 0.6004
vn -0.5976 0.6737 0.4348
vn -0.4343 0.6735 0.5981
vn -0.7031 0.6733 0.2286
vn -0.7030 0.6733 -0.2287
vn -0.7390 0.6736 -0.0001
vn -0.7395 0.6731 0.0000
vn -0.7024 0.6732 0.2309
vn -0.6676 0.7445 0.0000
vn -0.6343 0.7444 0.2085
vn 0.7031 -0.6735 -0.2281
vn 0.7390 -0.6736 -0.0001
vn 0.5981 -0.6735 -0.4343
vn 0.4348 -0.6737 -0.5976
vn 0.2286 -0.6733 -0.7031
vn -0.0001 -0.6736 -0.7390
vn -0.2287 -0.6733 -0.7030
vn -0.4348 -0.6737 -0.5976
vn 0.6356 0.7439 0.2064
vn -0.5976 -0.6737 -0.4348
vn -0.7030 -0.6733 -0.2287
vn -0.7390 -0.6736 -0.0001
vn -0.0001 -0.6736 0.7390
vn 0.2280 -0.6735 0.7031
vn 0.4343 -0.6735 0.5981
vn 0.5981 -0.6735 0.4343
vn 0.7031 -0.6735 0.2280
vn -0.7031 -0.6733 0.2286
vn -0.5976 -0.6737 0.4348
vn -0.4343 -0.6735 0.5981
vn -0.2281 -0.6735 0.7031
usemtl color_30377.002
s 1
f 1//1 2//2 3//3
f 1//1 3//3 4//4
f 5//5 6//6 2//2
f 7//7 8//8 9//9
f 10//10 9//9 8//8
f 11//11 12//12 7//7
f 13//13 14//14 15//15
f 13//13 15//15 16//16
f 17//17 7//7 12//12
f 8//8 7//7 17//17
f 18//18 6//6 5//5
f 18//18 5//5 19//19
f 20//20 21//21 22//22
f 20//20 22//22 23//23
f 21//21 24//24 25//25
f 21//21 25//25 22//22
f 26//26 27//27 28//28
f 24//24 6//6 18//18
f 24//24 18//18 25//25
f 27//27 29//29 30//30
f 27//27 30//30 28//28
f 31//31 32//32 9//9
f 33//33 2//2 20//20
f 29//29 34//34 35//35
f 29//29 35//35 30//30
f 36//36 37//37 38//38
f 39//39 38//38 40//40
f 37//37 41//41 38//38
f 40//40 38//38 41//41
f 31//31 9//9 10//10
f 34//34 42//42 43//43
f 34//34 43//43 35//35
f 20//20 2//2 21//21
f 42//42 44//44 45//45
f 42//42 45//45 43//43
f 4//4 46//46 47//47
f 48//48 49//49 50//50
f 2//2 51//51 3//3
f 52//52 53//53 7//7
f 46//46 4//4 54//54
f 55//55 38//38 56//56
f 57//57 58//58 54//54
f 46//46 54//54 58//58
f 59//59 27//27 26//26
f 59//59 26//26 60//60
f 3//3 61//61 54//54
f 62//62 5//5 1//1
f 2//2 1//1 5//5
f 14//14 33//33 63//63
f 14//14 63//63 15//15
f 64//3 65//64 66//61
f 47//47 66//61 65//64
f 67//65 16//16 68//66
f 16//16 15//15 68//66
f 15//15 63//63 68//66
f 69//67 68//66 63//63
f 23//23 69//67 63//63
f 53//53 11//11 7//7
f 70//4 57//57 71//47
f 3//3 54//54 4//4
f 72//68 65//64 64//3
f 73//69 69//67 74//70
f 73//69 74//70 75//71
f 73//69 75//71 76//72
f 73//69 76//72 77//73
f 23//23 63//63 20//20
f 33//33 20//20 63//63
f 78//57 47//47 65//64
f 79//58 78//57 72//68
f 65//64 72//68 78//57
f 52//52 59//59 80//74
f 81//75 68//66 69//67
f 81//75 69//67 82//76
f 83//77 9//9 84//78
f 25//25 69//67 22//22
f 18//18 69//67 25//25
f 19//19 69//67 18//18
f 23//23 22//22 69//67
f 66//61 47//47 46//46
f 80//74 59//59 85//79
f 67//65 68//66 81//75
f 67//65 81//75 86//80
f 5//5 62//62 87//81
f 5//5 87//81 19//19
f 62//62 1//1 88//82
f 69//67 19//19 87//81
f 69//67 87//81 89//83
f 69//67 89//83 90//84
f 69//67 90//84 91//85
f 69//67 91//85 74//70
f 79//58 59//59 7//7
f 62//62 88//82 89//83
f 62//62 89//83 87//81
f 13//13 86//80 51//51
f 81//75 44//44 86//80
f 47//47 9//9 1//1
f 92//86 93//87 1//1
f 88//82 1//1 94//88
f 2//2 33//33 51//51
f 9//9 78//57 7//7
f 47//47 78//57 9//9
f 95//89 92//86 9//9
f 88//82 94//88 90//84
f 88//82 90//84 89//83
f 4//4 47//47 1//1
f 59//59 51//51 27//27
f 54//54 71//47 57//57
f 1//1 9//9 92//86
f 94//88 1//1 93//87
f 71//47 61//61 72//68
f 7//7 78//57 79//58
f 66//61 46//46 58//58
f 67//65 86//80 13//13
f 67//65 13//13 16//16
f 70//4 71//47 72//68
f 96//90 97//91 98//92
f 98//92 97//91 99//93
f 79//58 72//68 61//61
f 93//87 91//85 90//84
f 93//87 90//84 94//88
f 14//14 51//51 33//33
f 58//58 64//3 66//61
f 99//93 97//91 100//94
f 101//95 100//94 28//28
f 97//91 28//28 100//94
f 50//50 38//38 39//39
f 55//55 36//36 38//38
f 102//96 103//97 38//38
f 104//98 103//97 102//96
f 56//56 38//38 103//97
f 60//60 85//79 59//59
f 59//59 52//52 7//7
f 61//61 3//3 51//51
f 8//8 17//17 99//93
f 8//8 99//93 100//94
f 79//58 61//61 59//59
f 51//51 59//59 61//61
f 17//17 12//12 98//92
f 17//17 98//92 99//93
f 49//49 48//48 105//99
f 96//90 98//92 11//11
f 12//12 11//11 98//92
f 74//70 91//85 93//87
f 28//28 30//30 101//95
f 97//91 96//90 106//100
f 97//91 106//100 107//101
f 97//91 107//101 108//102
f 97//91 108//102 109//103
f 97//91 109//103 110//104
f 111//105 32//32 112//106
f 31//31 112//106 32//32
f 113//107 114//108 48//48
f 114//108 105//99 48//48
f 38//38 50//50 49//49
f 10//10 101//95 112//106
f 10//10 112//106 31//31
f 71//47 54//54 61//61
f 8//8 100//94 101//95
f 8//8 101//95 10//10
f 72//68 64//3 70//4
f 113//107 48//48 115//109
f 116//110 117//111 48//48
f 118//112 119//113 45//45
f 43//43 45//45 119//113
f 119//113 111//105 43//43
f 35//35 43//43 111//105
f 30//30 35//35 112//106
f 112//106 101//95 30//30
f 111//105 112//106 35//35
f 115//109 48//48 117//111
f 118//112 120//114 119//113
f 121//115 84//78 32//32
f 32//32 84//78 9//9
f 34//34 29//29 51//51
f 29//29 27//27 51//51
f 45//45 44//44 120//114
f 45//45 120//114 118//112
f 11//11 53//53 106//100
f 11//11 106//100 96//90
f 122//116 55//55 56//56
f 122//116 56//56 123//117
f 53//53 52//52 107//101
f 53//53 107//101 106//100
f 51//51 86//80 44//44
f 42//42 51//51 44//44
f 124//118 36//36 55//55
f 124//118 55//55 122//116
f 52//52 80//74 108//102
f 52//52 108//102 107//101
f 125//119 37//37 36//36
f 125//119 36//36 124//118
f 80//74 85//79 109//103
f 80//74 109//103 108//102
f 51//51 42//42 34//34
f 125//119 126//120 41//41
f 125//119 41//41 37//37
f 85//79 60//60 110//104
f 85//79 110//104 109//103
f 126//120 127//121 40//40
f 126//120 40//40 41//41
f 60//60 26//26 97//91
f 60//60 97//91 110//104
f 40//40 127//121 128//122
f 40//40 128//122 39//39
f 26//26 28//28 97//91
f 128//122 129//123 50//50
f 128//122 50//50 39//39
f 119//113 120//114 121//115
f 82//76 130//124 120//114
f 129//123 131//125 48//48
f 129//123 48//48 50//50
f 121//115 32//32 111//105
f 121//115 111//105 119//113
f 14//14 13//13 51//51
f 82//76 120//114 81//75
f 44//44 81//75 120//114
f 83//77 76//72 95//89
f 75//71 95//89 76//72
f 83//77 84//78 77//73
f 83//77 77//73 76//72
f 121//115 130//124 84//78
f 83//77 95//89 9//9
f 84//78 130//124 73//69
f 84//78 73//69 77//73
f 92//86 74//70 93//87
f 121//115 120//114 130//124
f 69//67 73//69 130//124
f 69//67 130//124 82//76
f 75//71 74//70 92//86
f 75//71 92//86 95//89
f 64//3 58//58 70//4
f 57//57 70//4 58//58
f 6//6 24//24 2//2
f 24//24 21//21 2//2
f 116//110 48//48 132//126
f 131//125 132//126 48//48
f 132//126 133//127 117//111
f 132//126 117//111 116//110
f 49//49 134//128 135//129
f 49//49 135//129 38//38
f 136//130 102//96 38//38
f 136//130 38//38 135//129
f 137//131 104//98 102//96
f 137//131 102//96 136//130
f 104//98 137//131 103//97
f 138//132 103//97 137//131
f 56//56 103//97 138//132
f 56//56 138//132 123//117
f 133//127 139//133 115//109
f 133//127 115//109 117//111
f 139//133 140//134 113//107
f 139//133 113//107 115//109
f 140//134 141//135 114//108
f 140//134 114//108 113//107
f 142//136 105//99 114//108
f 142//136 114//108 141//135
f 105//99 142//136 49//49
f 134//128 49//49 142//136
f 125//119 133//127 126//120
f 124//118 133//127 125//119
f 122//116 133//127 124//118
f 123//117 133//127 122//116
f 127//121 126//120 133//127
f 127//121 133//127 132//126
f 127//121 132//126 131//125
f 127//121 131//125 129//123
f 127//121 129//123 128//122
f 138//132 137//131 136//130
f 138//132 136//130 135//129
f 138//132 135//129 134//128
f 142//136 123//117 134//128
f 141//135 123//117 142//136
f 140//134 123//117 141//135
f 139//133 123//117 140//134
f 133//127 123//117 139//133
f 138//132 134//128 123//117
